<svg width="120" height="120" viewBox="0 0 120 120" fill="none" xmlns="http://www.w3.org/2000/svg">
<path fill-rule="evenodd" clip-rule="evenodd" d="M29.2585 100.284H85.1811C87.0775 100.281 88.8956 99.5272 90.2366 98.1862C91.5775 96.8453 92.3318 95.0272 92.334 93.1308V30.0713C92.334 29.4625 92.0566 28.8869 91.5805 28.5074L81.8324 20.7374C81.4782 20.4551 81.0387 20.3014 80.5858 20.3014H29.2585C27.3621 20.3036 25.544 21.0579 24.203 22.3988C22.8621 23.7398 22.1078 25.5579 22.1057 27.4543V93.1308C22.1078 95.0272 22.8621 96.8453 24.203 98.1862C25.544 99.5272 27.3621 100.281 29.2585 100.284Z" fill="white"/>
<path opacity="0.2" d="M36.013 58.9735L36.0124 58.9735C35.9216 58.9736 35.8316 58.9558 35.7477 58.9212L35.5567 59.3833L35.7477 58.9212C35.6638 58.8865 35.5875 58.8356 35.5232 58.7714C35.4589 58.7072 35.408 58.631 35.3732 58.5471L34.9162 58.7365L35.3732 58.5471C35.3384 58.4632 35.3205 58.3732 35.3205 58.2824C35.3205 58.1916 35.3384 58.1016 35.3732 58.0177C35.408 57.9338 35.4589 57.8576 35.5232 57.7934C35.5875 57.7292 35.6637 57.6783 35.7477 57.6437C35.8316 57.609 35.9216 57.5912 36.0124 57.5913H36.013H73.5128C73.6961 57.5913 73.8719 57.6641 74.0016 57.7937C74.1312 57.9233 74.204 58.0991 74.204 58.2824C74.204 58.4657 74.1312 58.6415 74.0016 58.7711C73.8719 58.9007 73.6962 58.9735 73.5128 58.9735L36.013 58.9735ZM78.4264 62.9937H36.0131C35.9223 62.9937 35.8325 62.9758 35.7486 62.9411C35.6648 62.9063 35.5886 62.8554 35.5244 62.7912C35.4602 62.7271 35.4093 62.6509 35.3746 62.567C35.3398 62.4832 35.322 62.3933 35.322 62.3025C35.322 62.2118 35.3398 62.1219 35.3746 62.038C35.4093 61.9542 35.4602 61.878 35.5244 61.8138C35.5886 61.7496 35.6648 61.6987 35.7486 61.664C35.8325 61.6293 35.9223 61.6114 36.0131 61.6114H78.4264C78.5172 61.6114 78.6071 61.6293 78.6909 61.664C78.7748 61.6987 78.851 61.7496 78.9152 61.8138C78.9793 61.878 79.0302 61.9542 79.065 62.038C79.0997 62.1219 79.1176 62.2118 79.1176 62.3025C79.1176 62.3933 79.0997 62.4832 79.065 62.567C79.0302 62.6509 78.9793 62.7271 78.9152 62.7912C78.851 62.8554 78.7748 62.9063 78.6909 62.9411C78.6071 62.9758 78.5172 62.9937 78.4264 62.9937Z" fill="url(#paint0_linear_1103_3882)" stroke="#919EAB"/>
<path opacity="0.08" d="M36.013 81.0098L36.0124 81.0098C35.9216 81.0099 35.8316 80.9921 35.7477 80.9574C35.6637 80.9227 35.5875 80.8718 35.5232 80.8076C35.4589 80.7434 35.408 80.6672 35.3732 80.5833L34.9113 80.7748L35.3732 80.5833C35.3384 80.4994 35.3205 80.4095 35.3205 80.3186C35.3205 80.2278 35.3384 80.1379 35.3732 80.054C35.408 79.9701 35.4589 79.8938 35.5232 79.8297L35.1734 79.4794L35.5232 79.8297C35.5875 79.7655 35.6637 79.7146 35.7477 79.6799C35.8316 79.6452 35.9216 79.6274 36.0124 79.6275H36.013H78.4263C78.6096 79.6275 78.7854 79.7003 78.915 79.8299C79.0446 79.9595 79.1175 80.1353 79.1175 80.3186C79.1175 80.5019 79.0446 80.6777 78.915 80.8073C78.7854 80.937 78.6096 81.0098 78.4263 81.0098L36.013 81.0098ZM73.513 76.9897H36.0131C35.8298 76.9897 35.654 76.9169 35.5244 76.7872C35.3948 76.6576 35.322 76.4818 35.322 76.2985C35.322 76.1152 35.3948 75.9394 35.5244 75.8098C35.654 75.6802 35.8298 75.6074 36.0131 75.6074H73.513C73.6963 75.6074 73.8721 75.6802 74.0017 75.8098C74.1313 75.9394 74.2041 76.1152 74.2041 76.2985C74.2041 76.4818 74.1313 76.6576 74.0017 76.7872C73.8721 76.9169 73.6963 76.9897 73.513 76.9897Z" fill="#919EAB" stroke="#919EAB"/>
<g opacity="0.4">
<mask id="path-4-inside-1_1103_3882" fill="white">
<path d="M73.5128 41.4576H36.013C35.8564 41.4578 35.7014 41.4271 35.5567 41.3673C35.4121 41.3075 35.2806 41.2198 35.1698 41.1092C35.0591 40.9986 34.9712 40.8672 34.9113 40.7226C34.8514 40.578 34.8205 40.423 34.8205 40.2664C34.8205 40.1099 34.8514 39.9549 34.9113 39.8103C34.9712 39.6657 35.0591 39.5343 35.1698 39.4237C35.2806 39.3131 35.4121 39.2254 35.5567 39.1656C35.7014 39.1058 35.8564 39.0751 36.013 39.0753H73.5128C73.8288 39.0753 74.1317 39.2008 74.3551 39.4242C74.5785 39.6476 74.704 39.9505 74.704 40.2664C74.704 40.5824 74.5785 40.8853 74.3551 41.1087C74.1317 41.3321 73.8288 41.4576 73.5128 41.4576Z"/>
<path d="M78.4264 45.4777H36.0131C35.8567 45.4777 35.7018 45.4469 35.5573 45.387C35.4128 45.3272 35.2814 45.2394 35.1708 45.1288C35.0602 45.0182 34.9725 44.8869 34.9126 44.7424C34.8528 44.5979 34.822 44.443 34.822 44.2866C34.822 44.1301 34.8528 43.9752 34.9126 43.8307C34.9725 43.6862 35.0602 43.5549 35.1708 43.4443C35.2814 43.3337 35.4128 43.2459 35.5573 43.1861C35.7018 43.1262 35.8567 43.0954 36.0131 43.0954H78.4264C78.5829 43.0954 78.7378 43.1262 78.8823 43.1861C79.0268 43.2459 79.1581 43.3337 79.2687 43.4443C79.3793 43.5549 79.4671 43.6862 79.5269 43.8307C79.5868 43.9752 79.6176 44.1301 79.6176 44.2866C79.6176 44.443 79.5868 44.5979 79.5269 44.7424C79.4671 44.8869 79.3793 45.0182 79.2687 45.1288C79.1581 45.2394 79.0268 45.3272 78.8823 45.387C78.7378 45.4469 78.5829 45.4777 78.4264 45.4777Z"/>
<path d="M92.1187 29.3913H83.464C83.1512 29.3913 82.8414 29.3297 82.5523 29.21C82.2633 29.0902 82.0007 28.9148 81.7795 28.6935C81.5583 28.4723 81.3828 28.2097 81.2631 27.9207C81.1433 27.6316 81.0817 27.3219 81.0817 27.009V20.6167C81.0817 20.5887 81.0896 20.5613 81.1045 20.5376C81.1194 20.5139 81.1406 20.4949 81.1658 20.4827C81.191 20.4705 81.2191 20.4656 81.2469 20.4687C81.2748 20.4718 81.3011 20.4826 81.3231 20.5L92.2112 29.1257C92.2354 29.1449 92.2531 29.1712 92.2617 29.2008C92.2704 29.2305 92.2695 29.2622 92.2594 29.2914C92.2492 29.3206 92.2302 29.3459 92.205 29.3638C92.1798 29.3817 92.1497 29.3913 92.1187 29.3913Z"/>
</mask>
<path d="M73.5128 41.4576H36.013C35.8564 41.4578 35.7014 41.4271 35.5567 41.3673C35.4121 41.3075 35.2806 41.2198 35.1698 41.1092C35.0591 40.9986 34.9712 40.8672 34.9113 40.7226C34.8514 40.578 34.8205 40.423 34.8205 40.2664C34.8205 40.1099 34.8514 39.9549 34.9113 39.8103C34.9712 39.6657 35.0591 39.5343 35.1698 39.4237C35.2806 39.3131 35.4121 39.2254 35.5567 39.1656C35.7014 39.1058 35.8564 39.0751 36.013 39.0753H73.5128C73.8288 39.0753 74.1317 39.2008 74.3551 39.4242C74.5785 39.6476 74.704 39.9505 74.704 40.2664C74.704 40.5824 74.5785 40.8853 74.3551 41.1087C74.1317 41.3321 73.8288 41.4576 73.5128 41.4576Z" fill="#919EAB"/>
<path d="M78.4264 45.4777H36.0131C35.8567 45.4777 35.7018 45.4469 35.5573 45.387C35.4128 45.3272 35.2814 45.2394 35.1708 45.1288C35.0602 45.0182 34.9725 44.8869 34.9126 44.7424C34.8528 44.5979 34.822 44.443 34.822 44.2866C34.822 44.1301 34.8528 43.9752 34.9126 43.8307C34.9725 43.6862 35.0602 43.5549 35.1708 43.4443C35.2814 43.3337 35.4128 43.2459 35.5573 43.1861C35.7018 43.1262 35.8567 43.0954 36.0131 43.0954H78.4264C78.5829 43.0954 78.7378 43.1262 78.8823 43.1861C79.0268 43.2459 79.1581 43.3337 79.2687 43.4443C79.3793 43.5549 79.4671 43.6862 79.5269 43.8307C79.5868 43.9752 79.6176 44.1301 79.6176 44.2866C79.6176 44.443 79.5868 44.5979 79.5269 44.7424C79.4671 44.8869 79.3793 45.0182 79.2687 45.1288C79.1581 45.2394 79.0268 45.3272 78.8823 45.387C78.7378 45.4469 78.5829 45.4777 78.4264 45.4777Z" fill="#919EAB"/>
<path d="M92.1187 29.3913H83.464C83.1512 29.3913 82.8414 29.3297 82.5523 29.21C82.2633 29.0902 82.0007 28.9148 81.7795 28.6935C81.5583 28.4723 81.3828 28.2097 81.2631 27.9207C81.1433 27.6316 81.0817 27.3219 81.0817 27.009V20.6167C81.0817 20.5887 81.0896 20.5613 81.1045 20.5376C81.1194 20.5139 81.1406 20.4949 81.1658 20.4827C81.191 20.4705 81.2191 20.4656 81.2469 20.4687C81.2748 20.4718 81.3011 20.4826 81.3231 20.5L92.2112 29.1257C92.2354 29.1449 92.2531 29.1712 92.2617 29.2008C92.2704 29.2305 92.2695 29.2622 92.2594 29.2914C92.2492 29.3206 92.2302 29.3459 92.205 29.3638C92.1798 29.3817 92.1497 29.3913 92.1187 29.3913Z" fill="#919EAB"/>
<path d="M36.013 41.4576V40.4576L36.0119 40.4576L36.013 41.4576ZM35.5567 41.3673L35.9386 40.4431H35.9386L35.5567 41.3673ZM35.1698 41.1092L35.8766 40.4017L35.1698 41.1092ZM34.9113 40.7226L33.9875 41.1055H33.9875L34.9113 40.7226ZM34.9113 39.8103L33.9875 39.4274H33.9875L34.9113 39.8103ZM35.1698 39.4237L35.8766 40.1312H35.8766L35.1698 39.4237ZM35.5567 39.1656L35.1748 38.2414H35.1748L35.5567 39.1656ZM36.013 39.0753L36.0119 40.0753H36.013V39.0753ZM74.3551 39.4242L75.0622 38.7171L74.3551 39.4242ZM74.3551 41.1087L73.648 40.4016H73.648L74.3551 41.1087ZM35.5573 45.387L35.94 44.4631H35.94L35.5573 45.387ZM35.1708 45.1288L34.4637 45.8359H34.4637L35.1708 45.1288ZM34.9126 44.7424L33.9888 45.1251H33.9888L34.9126 44.7424ZM34.9126 43.8307L35.8365 44.2134L34.9126 43.8307ZM35.1708 43.4443L34.4637 42.7372H34.4637L35.1708 43.4443ZM35.5573 43.1861L35.94 44.11H35.94L35.5573 43.1861ZM79.5269 43.8307L78.603 44.2134L78.603 44.2134L79.5269 43.8307ZM79.5269 44.7424L78.603 44.3597L78.603 44.3597L79.5269 44.7424ZM92.1187 29.3913L92.1188 28.3913H92.1187V29.3913ZM81.0817 20.6167L80.0817 20.6167V20.6167H81.0817ZM81.3231 20.5L81.944 19.7162L81.944 19.7162L81.3231 20.5ZM92.2112 29.1257L92.8322 28.3419L92.8322 28.3419L92.2112 29.1257ZM73.5128 40.4576H36.013V42.4576H73.5128V40.4576ZM36.0119 40.4576C35.9867 40.4576 35.9619 40.4527 35.9386 40.4431L35.1748 42.2915C35.441 42.4015 35.7261 42.4579 36.0141 42.4576L36.0119 40.4576ZM35.9386 40.4431C35.9154 40.4335 35.8943 40.4194 35.8766 40.4017L34.4631 41.8167C34.6669 42.0202 34.9087 42.1815 35.1748 42.2915L35.9386 40.4431ZM35.8766 40.4017C35.8588 40.3839 35.8447 40.3628 35.8351 40.3396L33.9875 41.1055C34.0978 41.3715 34.2594 41.6132 34.4631 41.8167L35.8766 40.4017ZM35.8351 40.3396C35.8254 40.3164 35.8205 40.2916 35.8205 40.2664H33.8205C33.8205 40.5544 33.8773 40.8395 33.9875 41.1055L35.8351 40.3396ZM35.8205 40.2664C35.8205 40.2413 35.8254 40.2164 35.8351 40.1932L33.9875 39.4274C33.8773 39.6934 33.8205 39.9785 33.8205 40.2664H35.8205ZM35.8351 40.1932C35.8447 40.17 35.8588 40.149 35.8766 40.1312L34.4631 38.7162C34.2594 38.9197 34.0978 39.1614 33.9875 39.4274L35.8351 40.1932ZM35.8766 40.1312C35.8943 40.1135 35.9154 40.0994 35.9386 40.0898L35.1748 38.2414C34.9087 38.3514 34.6669 38.5127 34.4631 38.7162L35.8766 40.1312ZM35.9386 40.0898C35.9619 40.0802 35.9867 40.0753 36.0119 40.0753L36.0141 38.0753C35.7261 38.075 35.4409 38.1314 35.1748 38.2414L35.9386 40.0898ZM36.013 40.0753H73.5128V38.0753H36.013V40.0753ZM73.5128 40.0753C73.5635 40.0753 73.6122 40.0954 73.648 40.1313L75.0622 38.7171C74.6513 38.3062 74.094 38.0753 73.5128 38.0753V40.0753ZM73.648 40.1313C73.6838 40.1671 73.704 40.2157 73.704 40.2664H75.704C75.704 39.6853 75.4731 39.128 75.0622 38.7171L73.648 40.1313ZM73.704 40.2664C73.704 40.3171 73.6839 40.3658 73.648 40.4016L75.0622 41.8158C75.4731 41.4049 75.704 40.8476 75.704 40.2664H73.704ZM73.648 40.4016C73.6122 40.4375 73.5635 40.4576 73.5128 40.4576V42.4576C74.094 42.4576 74.6513 42.2267 75.0622 41.8158L73.648 40.4016ZM78.4264 44.4777H36.0131V46.4777H78.4264V44.4777ZM36.0131 44.4777C35.988 44.4777 35.9632 44.4728 35.94 44.4631L35.1746 46.3109C35.4404 46.421 35.7254 46.4777 36.0131 46.4777V44.4777ZM35.94 44.4631C35.9168 44.4535 35.8957 44.4395 35.8779 44.4217L34.4637 45.8359C34.6672 46.0394 34.9087 46.2008 35.1746 46.3109L35.94 44.4631ZM35.8779 44.4217C35.8602 44.404 35.8461 44.3829 35.8365 44.3597L33.9888 45.1251C34.0989 45.3909 34.2603 45.6325 34.4637 45.8359L35.8779 44.4217ZM35.8365 44.3597C35.8269 44.3365 35.822 44.3117 35.822 44.2866H33.822C33.822 44.5743 33.8786 44.8592 33.9888 45.1251L35.8365 44.3597ZM35.822 44.2866C35.822 44.2615 35.8269 44.2366 35.8365 44.2134L33.9888 43.448C33.8786 43.7139 33.822 43.9988 33.822 44.2866H35.822ZM35.8365 44.2134C35.8461 44.1902 35.8602 44.1691 35.8779 44.1514L34.4637 42.7372C34.2603 42.9406 34.0989 43.1822 33.9888 43.448L35.8365 44.2134ZM35.8779 44.1514C35.8957 44.1336 35.9168 44.1196 35.94 44.11L35.1746 42.2622C34.9087 42.3723 34.6672 42.5337 34.4637 42.7372L35.8779 44.1514ZM35.94 44.11C35.9632 44.1004 35.988 44.0954 36.0131 44.0954V42.0954C35.7254 42.0954 35.4404 42.1521 35.1746 42.2622L35.94 44.11ZM36.0131 44.0954H78.4264V42.0954H36.0131V44.0954ZM78.4264 44.0954C78.4515 44.0954 78.4764 44.1003 78.4996 44.11L79.265 42.2622C78.9991 42.1521 78.7142 42.0954 78.4264 42.0954V44.0954ZM78.4996 44.11C78.5228 44.1196 78.5439 44.1336 78.5616 44.1514L79.9758 42.7372C79.7723 42.5337 79.5308 42.3723 79.265 42.2622L78.4996 44.11ZM78.5616 44.1514C78.5794 44.1692 78.5934 44.1902 78.603 44.2134L80.4508 43.4481C80.3407 43.1822 80.1793 42.9406 79.9758 42.7372L78.5616 44.1514ZM78.603 44.2134C78.6126 44.2366 78.6176 44.2615 78.6176 44.2866H80.6176C80.6176 43.9988 80.5609 43.7139 80.4508 43.448L78.603 44.2134ZM78.6176 44.2866C78.6176 44.3116 78.6126 44.3365 78.603 44.3597L80.4508 45.1251C80.5609 44.8592 80.6176 44.5743 80.6176 44.2866H78.6176ZM78.603 44.3597C78.5934 44.3829 78.5794 44.404 78.5616 44.4217L79.9758 45.8359C80.1793 45.6325 80.3407 45.3909 80.4508 45.1251L78.603 44.3597ZM78.5616 44.4217C78.5439 44.4395 78.5228 44.4535 78.4996 44.4631L79.265 46.3109C79.5308 46.2008 79.7723 46.0394 79.9758 45.8359L78.5616 44.4217ZM78.4996 44.4631C78.4764 44.4728 78.4515 44.4777 78.4264 44.4777V46.4777C78.7142 46.4777 78.9991 46.421 79.265 46.3109L78.4996 44.4631ZM92.1187 28.3913H83.464V30.3913H92.1187V28.3913ZM83.464 28.3913C83.2825 28.3913 83.1027 28.3555 82.935 28.2861L82.1697 30.1338C82.58 30.3038 83.0198 30.3913 83.464 30.3913V28.3913ZM82.935 28.2861C82.7673 28.2166 82.6149 28.1148 82.4866 27.9864L81.0724 29.4006C81.3864 29.7147 81.7593 29.9639 82.1697 30.1338L82.935 28.2861ZM82.4866 27.9864C82.3582 27.8581 82.2564 27.7057 82.1869 27.538L80.3392 28.3034C80.5092 28.7137 80.7583 29.0866 81.0724 29.4006L82.4866 27.9864ZM82.1869 27.538C82.1175 27.3703 82.0817 27.1905 82.0817 27.009H80.0817C80.0817 27.4532 80.1692 27.893 80.3392 28.3034L82.1869 27.538ZM82.0817 27.009V20.6167H80.0817V27.009H82.0817ZM82.0817 20.6167C82.0817 20.7765 82.0367 20.9333 81.9516 21.0689L80.2573 20.0062C80.1425 20.1893 80.0817 20.4009 80.0817 20.6167L82.0817 20.6167ZM81.9516 21.0689C81.8666 21.2045 81.7451 21.3133 81.6011 21.3829L80.7305 19.5824C80.5361 19.6764 80.3721 19.8233 80.2573 20.0062L81.9516 21.0689ZM81.6011 21.3829C81.4571 21.4526 81.2963 21.4802 81.1374 21.4627L81.3565 19.4747C81.1419 19.4511 80.9249 19.4884 80.7305 19.5824L81.6011 21.3829ZM81.1374 21.4627C80.9783 21.4452 80.8274 21.3831 80.7021 21.2838L81.944 19.7162C81.7748 19.5821 81.5712 19.4984 81.3565 19.4747L81.1374 21.4627ZM80.7021 21.2838L91.5902 29.9095L92.8322 28.3419L81.944 19.7162L80.7021 21.2838ZM91.5902 29.9095C91.4516 29.7997 91.3508 29.6495 91.3015 29.48L93.222 28.9217C93.1554 28.6928 93.0193 28.4901 92.8322 28.3419L91.5902 29.9095ZM91.3015 29.48C91.2522 29.3103 91.2569 29.1295 91.315 28.9626L93.2038 29.6201C93.2822 29.3948 93.2886 29.1507 93.222 28.9217L91.3015 29.48ZM91.315 28.9626C91.3731 28.7957 91.4817 28.651 91.6257 28.5487L92.7843 30.1789C92.9788 30.0407 93.1254 29.8454 93.2038 29.6201L91.315 28.9626ZM91.6257 28.5487C91.7697 28.4463 91.942 28.3913 92.1188 28.3913L92.1187 30.3913C92.3573 30.3913 92.5899 30.3171 92.7843 30.1789L91.6257 28.5487Z" fill="#919EAB" mask="url(#path-4-inside-1_1103_3882)"/>
</g>
<path opacity="0.2" d="M38.3862 25.95C38.3862 29.3024 37.3921 32.5795 35.5296 35.3669C33.6672 38.1543 31.0199 40.3268 27.9227 41.6098C24.8255 42.8927 21.4174 43.2283 18.1295 42.5743C14.8415 41.9203 11.8213 40.306 9.45079 37.9355C7.08029 35.565 5.46595 32.5448 4.81193 29.2568C4.15791 25.9688 4.49358 22.5607 5.77649 19.4635C7.05939 16.3663 9.23191 13.7191 12.0193 11.8566C14.8067 9.9941 18.0838 9 21.4362 9C25.9312 9.00142 30.2417 10.7877 33.4201 13.9661C36.5986 17.1445 38.3848 21.455 38.3862 25.95Z" fill="#919EAB"/>
<path d="M37.7851 25.9494C37.7851 29.183 36.8262 32.344 35.0297 35.0327C33.2332 37.7213 30.6798 39.8169 27.6923 41.0543C24.7048 42.2917 21.4175 42.6155 18.2461 41.9847C15.0746 41.3538 12.1614 39.7967 9.87488 37.5102C7.58838 35.2237 6.03125 32.3105 5.4004 29.139C4.76955 25.9675 5.09333 22.6802 6.33077 19.6928C7.56822 16.7053 9.66377 14.1519 12.3524 12.3554C15.0411 10.5589 18.2021 9.6 21.4357 9.6C25.7714 9.60137 29.9291 11.3243 32.9949 14.3901C36.0607 17.456 37.7837 21.6137 37.7851 25.9494Z" fill="#C8FAD6"/>
<mask id="mask0_1103_3882" style="mask-type:alpha" maskUnits="userSpaceOnUse" x="5" y="9" width="33" height="34">
<path d="M37.7851 25.9494C37.7851 29.183 36.8262 32.344 35.0297 35.0327C33.2332 37.7213 30.6798 39.8169 27.6923 41.0543C24.7048 42.2917 21.4175 42.6155 18.2461 41.9847C15.0746 41.3538 12.1614 39.7967 9.87488 37.5102C7.58838 35.2237 6.03125 32.3105 5.4004 29.139C4.76955 25.9675 5.09333 22.6802 6.33077 19.6928C7.56822 16.7053 9.66377 14.1519 12.3524 12.3554C15.0411 10.5589 18.2021 9.6 21.4357 9.6C25.7714 9.60137 29.9291 11.3243 32.9949 14.3901C36.0607 17.456 37.7837 21.6137 37.7851 25.9494Z" fill="white"/>
</mask>
<g mask="url(#mask0_1103_3882)">
<path d="M21.6857 17.6569C24.8669 17.6569 27.4457 20.2358 27.4457 23.4169L27.4458 24.0512C28.0295 24.1491 28.4743 24.6568 28.4743 25.2684V26.7084C28.4743 27.3309 28.0134 27.8458 27.4142 27.9304C27.2017 29.9675 25.9273 31.6889 24.1544 32.5312L24.1543 34.4226H24.5657C28.6558 34.4226 31.9714 37.7383 31.9714 41.8284V42.7541H11.4V41.8284C11.4 37.7383 14.7156 34.4226 18.8057 34.4226H19.2171L19.2171 32.5312C17.4441 31.6889 16.1697 29.9676 15.9571 27.9304C15.358 27.8458 14.8971 27.3309 14.8971 26.7084V25.2684C14.8971 24.6568 15.342 24.1491 15.9257 24.0511L15.9257 23.4169C15.9257 20.2358 18.5045 17.6569 21.6857 17.6569Z" fill="#FDBAB9"/>
<path d="M16.6457 35.1784C16.6457 36.8531 18.9252 38.2106 21.7371 38.2106C24.5491 38.2106 26.8286 36.8531 26.8286 35.1784C26.8286 35.0383 26.8126 34.9004 26.7817 34.7653C29.7892 35.7071 31.9714 38.5156 31.9714 41.8337V42.7541H11.4V41.8337C11.4 38.4749 13.636 35.6384 16.7006 34.7314C16.6644 34.8774 16.6457 35.0266 16.6457 35.1784Z" fill="#007867"/>
<path d="M16.6457 35.1784C16.6457 36.8531 18.9252 38.2106 21.7371 38.2106C24.5491 38.2106 26.8286 36.8531 26.8286 35.1784C26.8286 35.0383 26.8126 34.9004 26.7817 34.7653C29.7892 35.7071 31.9714 38.5156 31.9714 41.8337V42.7541H11.4V41.8337C11.4 38.4749 13.636 35.6384 16.7006 34.7314C16.6644 34.8774 16.6457 35.0266 16.6457 35.1784Z" fill="#5BE49B"/>
<g opacity="0.16">
<path d="M19.1141 29.3424C19.2591 30.3322 20.3548 31.1312 21.6855 31.1312C23.0194 31.1312 24.1177 30.3272 24.2569 29.253C24.2673 29.2119 24.2338 29.0741 24.0333 29.0741C21.9775 29.0741 20.4244 29.0741 19.3377 29.0741C19.1535 29.0741 19.1007 29.2017 19.1141 29.3424Z" fill="black"/>
<path fill-rule="evenodd" clip-rule="evenodd" d="M20.4513 27.3255C20.4513 27.7799 21.0039 28.1483 21.6856 28.1483C22.3672 28.1483 22.9199 27.7799 22.9199 27.3255" fill="black"/>
</g>
<path d="M19.0112 26.0912C19.352 26.0912 19.6283 25.8149 19.6283 25.4741C19.6283 25.1332 19.352 24.8569 19.0112 24.8569C18.6704 24.8569 18.394 25.1332 18.394 25.4741C18.394 25.8149 18.6704 26.0912 19.0112 26.0912Z" fill="#004B50"/>
<path d="M24.3596 26.0912C24.7005 26.0912 24.9768 25.8149 24.9768 25.4741C24.9768 25.1332 24.7005 24.8569 24.3596 24.8569C24.0188 24.8569 23.7425 25.1332 23.7425 25.4741C23.7425 25.8149 24.0188 26.0912 24.3596 26.0912Z" fill="#004B50"/>
<path d="M17.5335 24.1533C17.9362 23.5867 19.0401 23.2689 19.991 23.5024C20.1014 23.5295 20.2128 23.4621 20.2399 23.3517C20.267 23.2414 20.1995 23.13 20.0891 23.1029C18.9848 22.8317 17.7065 23.1996 17.1981 23.9149C17.1323 24.0075 17.154 24.136 17.2466 24.2018C17.3392 24.2676 17.4677 24.2459 17.5335 24.1533Z" fill="#004B50"/>
<path d="M25.8379 24.1533C25.4352 23.5867 24.3313 23.2689 23.3804 23.5024C23.27 23.5295 23.1586 23.4621 23.1315 23.3517C23.1044 23.2414 23.1719 23.13 23.2823 23.1029C24.3866 22.8317 25.6649 23.1996 26.1733 23.9149C26.2391 24.0075 26.2174 24.136 26.1248 24.2018C26.0322 24.2676 25.9037 24.2459 25.8379 24.1533Z" fill="#004B50"/>
<path d="M21.6858 16.1142C25.5486 16.1142 28.6801 19.2456 28.6801 23.1084L28.6801 26.2717C28.7701 27.2799 28.8543 27.9862 28.9327 28.3906C29.0743 29.1213 29.5184 28.8803 29.5184 29.9197C29.5184 30.959 29.0732 31.3082 29.0713 32.2324C29.0693 33.1566 30.655 33.8916 30.655 35.0648C30.655 36.2381 29.9273 41.7745 22.6709 41.7745C21.1208 41.7745 19.8004 41.3335 18.7098 40.4515C18.7801 41.1191 18.8463 41.8866 18.9086 42.7542H14.0744C14.1703 40.3091 13.3251 38.9419 13.3251 36.2171C13.3251 33.4924 14.7278 29.5296 14.6915 28.5599C14.6936 28.4994 14.6957 28.4276 14.6979 28.3447C14.6936 28.2454 14.6915 28.1458 14.6915 28.0456V23.1084C14.6915 22.7 14.7265 22.2996 14.7937 21.9103C14.7941 21.8984 14.7942 21.8863 14.7944 21.8742L14.7986 21.8821C15.3784 18.604 18.2413 16.1142 21.6858 16.1142ZM21.7372 19.4056H21.6343C18.5384 19.4056 16.0286 21.9153 16.0286 25.0113V27.377C16.0286 30.473 18.5384 32.9827 21.6343 32.9827H21.7372C24.8332 32.9827 27.3429 30.473 27.3429 27.377V25.0113C27.3429 21.9153 24.8332 19.4056 21.7372 19.4056Z" fill="#00A76F"/>
<g opacity="0.9">
<path fill-rule="evenodd" clip-rule="evenodd" d="M21.6856 17.2455C25.2076 17.2455 28.0628 20.0776 28.0628 23.5712C28.0628 23.9738 28.0249 24.3676 27.9524 24.7493C27.789 21.4296 25.0458 18.7883 21.6856 18.7883C18.3255 18.7883 15.5823 21.4296 15.419 24.7493C15.3464 24.3676 15.3085 23.9738 15.3085 23.5712C15.3085 20.0776 18.1636 17.2455 21.6856 17.2455Z" fill="#007867"/>
<path fill-rule="evenodd" clip-rule="evenodd" d="M28.4392 35.5015C28.4538 35.5344 28.4674 35.5679 28.4798 35.6021C28.9454 36.8813 27.649 38.5276 25.5843 39.2791C23.5195 40.0306 21.4682 39.6028 21.0026 38.3236C20.9902 38.2894 20.979 38.255 20.9691 38.2203C21.8118 38.8017 23.4775 38.8294 25.1933 38.2049C26.9061 37.5815 28.1629 36.4924 28.4377 35.5067L28.4392 35.5015ZM27.2449 33.9233C27.252 33.9492 27.2578 33.9754 27.2625 34.0021C27.4384 34.9993 25.9011 36.1038 23.829 36.4692C21.757 36.8346 19.9347 36.3224 19.7588 35.3252C19.7541 35.2986 19.7507 35.2719 19.7484 35.2451C20.4156 35.7578 21.9596 35.9354 23.6814 35.6318C25.4002 35.3288 26.7886 34.6356 27.2425 33.927L27.2449 33.9233ZM27.4455 25.834V28.1997C27.4455 31.2957 24.9357 33.8055 21.8398 33.8055H21.5312C18.4353 33.8055 15.9255 31.2957 15.9255 28.1997V25.834C15.9255 25.4537 15.9634 25.0821 16.0356 24.723C16.0308 24.8185 16.0284 24.9146 16.0284 25.0112V27.3769C16.0284 30.4728 18.5381 32.9826 21.6341 32.9826H21.7369C24.8329 32.9826 27.3426 30.4728 27.3426 27.3769V25.0112C27.3426 24.9146 27.3402 24.8185 27.3354 24.7231C27.4076 25.0822 27.4455 25.4537 27.4455 25.834Z" fill="#007867"/>
</g>
</g>
<path opacity="0.2" d="M117.309 59.5406C117.309 63.1187 116.178 66.6051 114.076 69.5008C111.974 72.3964 109.01 74.5529 105.608 75.6616C105.506 75.694 105.404 75.7263 105.301 75.7571C104.86 75.8927 104.414 76.0083 103.959 76.1069C103.136 76.2854 102.301 76.4013 101.461 76.4536C101.096 76.4783 100.729 76.4906 100.359 76.4906C98.4512 76.4925 96.5563 76.1716 94.7551 75.5414C94.7028 75.5229 94.6504 75.5044 94.5995 75.4859C91.6812 74.4319 89.1081 72.5972 87.1607 70.1815C85.2133 67.7659 83.9662 64.8621 83.5554 61.7866C83.1446 58.711 83.5858 55.5817 84.831 52.7397C86.0761 49.8976 88.0774 47.4518 90.6169 45.6688C93.1563 43.8859 96.1363 42.834 99.2323 42.628C102.328 42.422 105.421 43.0697 108.175 44.5006C110.928 45.9314 113.236 48.0905 114.846 50.7425C116.457 53.3945 117.309 56.4378 117.309 59.5406Z" fill="#919EAB"/>
<path d="M116.708 59.54C116.708 62.9914 115.616 66.3542 113.589 69.1473C111.562 71.9403 108.703 74.0204 105.421 75.0898C105.323 75.121 105.225 75.1523 105.125 75.182C104.7 75.3128 104.269 75.4242 103.831 75.5194C103.037 75.6915 102.232 75.8033 101.421 75.8538C101.069 75.8776 100.715 75.8895 100.359 75.8895C98.5181 75.8913 96.6904 75.5817 94.953 74.9739C94.9025 74.9561 94.852 74.9382 94.8029 74.9204C91.988 73.9037 89.5061 72.134 87.6277 69.8039C85.7492 67.4739 84.5464 64.673 84.1501 61.7064C83.7539 58.7399 84.1795 55.7214 85.3805 52.9801C86.5815 50.2387 88.5119 47.8796 90.9614 46.1598C93.4108 44.44 96.2853 43.4254 99.2716 43.2267C102.258 43.028 105.241 43.6528 107.897 45.0329C110.553 46.413 112.779 48.4956 114.332 51.0536C115.886 53.6117 116.708 56.5471 116.708 59.54Z" fill="#C8FAD6"/>
<mask id="mask1_1103_3882" style="mask-type:alpha" maskUnits="userSpaceOnUse" x="84" y="43" width="33" height="33">
<path d="M116.708 59.54C116.708 62.9914 115.616 66.3542 113.589 69.1473C111.562 71.9403 108.703 74.0204 105.421 75.0898C105.323 75.121 105.225 75.1523 105.125 75.182C104.7 75.3128 104.269 75.4242 103.831 75.5194C103.037 75.6915 102.232 75.8033 101.421 75.8538C101.069 75.8776 100.715 75.8895 100.359 75.8895C98.5181 75.8913 96.6904 75.5817 94.953 74.9739C94.9025 74.9561 94.852 74.9382 94.8029 74.9204C91.988 73.9037 89.5061 72.134 87.6277 69.8039C85.7492 67.4739 84.5464 64.673 84.1501 61.7064C83.7539 58.7399 84.1795 55.7214 85.3805 52.9801C86.5815 50.2387 88.5119 47.8796 90.9614 46.1598C93.4108 44.44 96.2853 43.4254 99.2716 43.2267C102.258 43.028 105.241 43.6528 107.897 45.0329C110.553 46.413 112.779 48.4956 114.332 51.0536C115.886 53.6117 116.708 56.5471 116.708 59.54Z" fill="white"/>
</mask>
<g mask="url(#mask1_1103_3882)">
<path d="M100.131 51.2569C103.312 51.2569 105.891 53.8358 105.891 57.0169L105.891 57.6512C106.475 57.7491 106.92 58.2568 106.92 58.8684V60.3084C106.92 60.9309 106.459 61.4458 105.86 61.5304C105.647 63.5675 104.373 65.2889 102.6 66.1312L102.6 68.0226H103.011C107.101 68.0226 110.417 71.3383 110.417 75.4284V76.3541H89.8456V75.4284C89.8456 71.3383 93.1613 68.0226 97.2513 68.0226H97.6628L97.6628 66.1312C95.8898 65.2889 94.6153 63.5676 94.4027 61.5304C93.8036 61.4458 93.3428 60.9309 93.3428 60.3084V58.8684C93.3428 58.2568 93.7876 57.7491 94.3713 57.6511L94.3713 57.0169C94.3713 53.8358 96.9502 51.2569 100.131 51.2569Z" fill="#FDBAB9"/>
<path d="M103.011 68.0279C107.101 68.0279 110.417 71.3436 110.417 75.4336V76.354H89.8456V75.4336C89.8456 71.3436 93.1613 68.0279 97.2513 68.0279L97.374 68.028C97.3609 68.1291 97.3542 68.2321 97.3542 68.3365C97.3542 69.7567 98.5976 70.9079 100.131 70.9079C101.665 70.9079 102.908 69.7567 102.908 68.3365C102.908 68.2321 102.902 68.1291 102.889 68.028L103.011 68.0279Z" fill="#C8FAD6"/>
<path fill-rule="evenodd" clip-rule="evenodd" d="M96.4282 72.0855C96.4282 73.6499 96.6299 75.1117 96.9797 76.3542L89.8453 76.3541V75.4337C89.8453 71.4545 92.9837 68.2082 96.9203 68.0353C96.6072 69.2293 96.4282 70.6119 96.4282 72.0855ZM110.417 75.4337V76.3541L103.385 76.3542C103.735 75.1117 103.937 73.6499 103.937 72.0855C103.937 70.6141 103.758 69.2334 103.446 68.0406C107.334 68.2657 110.417 71.4897 110.417 75.4337Z" fill="#00A76F"/>
<path fill-rule="evenodd" clip-rule="evenodd" d="M105.171 73.8856L106.154 73.1484C106.302 73.0371 106.507 73.0389 106.653 73.1528L107.331 73.6798L105.171 73.8856Z" fill="#C8FAD6"/>
<path fill-rule="evenodd" clip-rule="evenodd" d="M96.9425 67.9198C96.5311 69.9084 96.7025 72.7198 97.4568 76.3541H95.8111L94.3711 72.6513L94.9882 71.7255L94.3711 71.1084L96.3254 68.0227C96.5339 67.9578 96.7397 67.9235 96.9425 67.9198Z" fill="#004B50"/>
<path fill-rule="evenodd" clip-rule="evenodd" d="M103.32 67.9198C103.731 69.9084 103.56 72.7198 102.805 76.3541H104.451L105.891 72.6513L105.274 71.7255L105.891 71.1084L103.937 68.0227C103.728 67.9578 103.523 67.9235 103.32 67.9198Z" fill="#004B50"/>
<path fill-rule="evenodd" clip-rule="evenodd" d="M102.6 67.2553C103.296 67.7281 103.731 68.3988 103.731 69.1426C103.731 69.9038 103.276 70.5884 102.55 71.0628L101.939 70.5814L101.468 70.6155L101.571 70.2914L101.563 70.2851C102.191 69.9619 102.6 69.4319 102.6 68.8329L102.6 67.2553ZM98.6992 70.2851L98.6912 70.2914L98.794 70.6155L98.3229 70.5814L97.7119 71.0628C97.0003 70.5974 96.5484 69.9295 96.5316 69.1855L96.5312 69.1426C96.5312 68.3987 96.966 67.7281 97.6627 67.2552L97.6626 68.8329C97.6626 69.4319 98.0717 69.9619 98.6992 70.2851Z" fill="#5BE49B"/>
<g opacity="0.16">
<path fill-rule="evenodd" clip-rule="evenodd" d="M98.6912 62.8797C98.6912 63.675 99.3359 64.3197 100.131 64.3197C100.927 64.3197 101.571 63.675 101.571 62.8797" fill="black"/>
<path fill-rule="evenodd" clip-rule="evenodd" d="M98.8969 60.9255C98.8969 61.3799 99.4495 61.7483 100.131 61.7483C100.813 61.7483 101.365 61.3799 101.365 60.9255" fill="black"/>
</g>
<path fill-rule="evenodd" clip-rule="evenodd" d="M96.0332 59.6452C96.2231 60.0359 96.6508 60.3084 97.1479 60.3084C97.6433 60.3084 98.0697 60.0379 98.2606 59.6493C98.3173 59.5339 98.2366 59.4395 98.1552 59.5095C97.9031 59.7262 97.545 59.8616 97.1479 59.8616C96.7632 59.8616 96.4152 59.7345 96.1646 59.5296C96.073 59.4546 95.9776 59.5309 96.0332 59.6452Z" fill="#004B50"/>
<path fill-rule="evenodd" clip-rule="evenodd" d="M101.999 59.6452C102.189 60.0359 102.616 60.3084 103.114 60.3084C103.609 60.3084 104.035 60.0379 104.226 59.6493C104.283 59.5339 104.202 59.4395 104.121 59.5095C103.869 59.7262 103.511 59.8616 103.114 59.8616C102.729 59.8616 102.381 59.7345 102.13 59.5296C102.039 59.4546 101.943 59.5309 101.999 59.6452Z" fill="#004B50"/>
<path d="M95.9791 57.7533C96.3818 57.1867 97.4857 56.8689 98.4366 57.1024C98.547 57.1295 98.6584 57.0621 98.6855 56.9517C98.7126 56.8414 98.6451 56.73 98.5348 56.7029C97.4304 56.4317 96.1521 56.7996 95.6437 57.5149C95.5779 57.6075 95.5996 57.736 95.6922 57.8018C95.7849 57.8676 95.9133 57.8459 95.9791 57.7533Z" fill="#004B50"/>
<path d="M104.284 57.7533C103.881 57.1867 102.777 56.8689 101.826 57.1024C101.716 57.1295 101.604 57.0621 101.577 56.9517C101.55 56.8414 101.618 56.73 101.728 56.7029C102.832 56.4317 104.111 56.7996 104.619 57.5149C104.685 57.6075 104.663 57.736 104.57 57.8018C104.478 57.8676 104.349 57.8459 104.284 57.7533Z" fill="#004B50"/>
<path fill-rule="evenodd" clip-rule="evenodd" d="M100.131 53.4168C103.483 53.4168 106.2 54.9365 106.2 56.8111C106.2 57.0765 106.145 57.3347 106.042 57.5825C105.418 56.0796 103.008 54.9597 100.131 54.9597C97.254 54.9597 94.8445 56.0796 94.22 57.5826C94.1171 57.3348 94.0626 57.0765 94.0626 56.8111C94.0626 54.9365 96.7796 53.4168 100.131 53.4168Z" fill="#007867"/>
<path d="M100.183 64.6119C99.0126 64.6508 98.4907 65.2168 98.0977 64.6416C97.8027 64.2099 97.9262 63.4839 98.2018 63.0754C98.594 62.4941 99.126 62.7753 99.7209 62.709C99.8827 62.6909 100.045 62.6455 100.183 62.5711C100.32 62.6455 100.482 62.6909 100.644 62.709C101.239 62.7753 101.771 62.4941 102.163 63.0754C102.439 63.4839 102.562 64.2099 102.267 64.6416C101.874 65.2168 101.352 64.573 100.183 64.6119ZM105.862 57.634C105.514 59.0817 105.354 60.5586 105.102 62.023C105.05 62.3283 104.992 62.6325 104.931 62.9362C104.918 63 104.905 63.2369 104.843 63.2669C104.655 63.3578 104.272 62.8742 104.169 62.765C103.912 62.4908 103.656 62.2141 103.343 61.999C102.709 61.5642 101.967 61.3071 101.195 61.2461C100.872 61.2205 100.436 61.2651 100.131 61.4511C99.8269 61.2651 99.3902 61.2205 99.0672 61.2461C98.2952 61.3071 97.5534 61.5642 96.9197 61.999C96.6061 62.2141 96.3509 62.4908 96.0934 62.765C95.9908 62.8742 95.6074 63.3578 95.4193 63.2669C95.3572 63.2369 95.3445 63 95.3317 62.9362C95.2706 62.6325 95.213 62.3283 95.1604 62.023C94.9081 60.5586 94.7482 59.0817 94.4001 57.634C94.2989 57.634 94.21 59.5623 94.1987 59.742C94.1527 60.4717 94.099 61.1852 94.1676 61.9155C94.286 63.1754 94.4093 64.7552 95.3579 65.7173C96.215 66.5866 97.4594 66.7684 98.5327 67.3171C98.6709 67.3877 98.8543 67.475 99.0519 67.5464C99.2602 67.7072 99.6732 67.8168 100.149 67.8168C100.648 67.8168 101.078 67.6962 101.275 67.5224C101.448 67.4561 101.607 67.38 101.73 67.3171C102.803 66.7682 104.048 66.5866 104.905 65.7173C105.853 64.7552 105.977 63.1754 106.095 61.9155C106.164 61.1852 106.11 60.4717 106.064 59.742C106.053 59.5623 105.964 57.634 105.862 57.634Z" fill="#004B50"/>
<path d="M100.337 47.8627C103.407 47.8627 108.763 52.4037 108.771 57.256C108.776 59.8766 107.781 61.4769 105.788 62.057C106.417 56.3084 102.538 55.0025 100.128 53.6039C97.7153 55.0024 93.8427 56.3083 94.4741 62.057C92.481 61.5427 91.4867 59.9423 91.4912 57.256C91.4995 52.4037 96.8474 47.8627 99.9255 47.8627C99.9943 47.8627 100.063 47.8658 100.13 47.8718C100.199 47.8658 100.268 47.8627 100.337 47.8627Z" fill="#004B50"/>
</g>
<path opacity="0.2" d="M3.00001 93.8744C2.99706 96.1053 3.43589 98.3148 4.29119 100.375C5.14648 102.436 6.40131 104.307 7.98328 105.88C8.11586 106.011 8.25144 106.142 8.38853 106.269C9.21461 107.041 10.1159 107.728 11.079 108.32C11.2639 108.434 11.4488 108.544 11.6384 108.65C12.6123 109.199 13.6385 109.65 14.7017 109.995C14.885 110.055 15.0715 110.112 15.2579 110.165C18.6376 111.134 22.2345 111.033 25.5543 109.875C25.619 109.852 25.6837 109.829 25.7469 109.806C28.6612 108.746 31.2288 106.906 33.1702 104.488C35.1116 102.07 36.3524 99.1652 36.7576 96.0906C37.1628 93.016 36.7168 89.8892 35.4681 87.0506C34.2195 84.2119 32.2161 81.7702 29.676 79.9911C27.1359 78.2121 24.1564 77.1639 21.062 76.9608C17.9675 76.7576 14.8766 77.4072 12.1257 78.8389C9.37477 80.2706 7.06933 82.4295 5.46029 85.0805C3.85125 87.7316 3.00028 90.7732 3.00001 93.8744Z" fill="#919EAB"/>
<path d="M3.60002 93.8738C3.59717 96.0257 4.02045 98.1569 4.84544 100.144C5.67043 102.132 6.8808 103.936 8.40672 105.454C8.5346 105.58 8.66538 105.706 8.79761 105.83C9.59442 106.574 10.4638 107.237 11.3928 107.808C11.5711 107.918 11.7495 108.023 11.9323 108.126C12.8717 108.655 13.8615 109.09 14.887 109.424C15.0639 109.482 15.2437 109.537 15.4236 109.587C18.6835 110.522 22.153 110.424 25.3552 109.308C25.4176 109.285 25.48 109.263 25.5409 109.241C28.352 108.218 30.8286 106.444 32.7012 104.111C34.5738 101.779 35.7707 98.9771 36.1615 96.0115C36.5523 93.0459 36.1221 90.0299 34.9177 87.2918C33.7133 84.5537 31.7809 82.1985 29.3308 80.4825C26.8807 78.7665 24.0068 77.7554 21.022 77.5595C18.0372 77.3635 15.0557 77.9901 12.4023 79.3711C9.74891 80.752 7.52515 82.8344 5.97312 85.3915C4.4211 87.9486 3.60028 90.8825 3.60002 93.8738Z" fill="#C8FAD6"/>
<mask id="mask2_1103_3882" style="mask-type:alpha" maskUnits="userSpaceOnUse" x="3" y="77" width="34" height="34">
<path d="M3.60002 93.8738C3.59717 96.0257 4.02045 98.1569 4.84544 100.144C5.67043 102.132 6.8808 103.936 8.40672 105.454C8.5346 105.58 8.66538 105.706 8.79761 105.83C9.59442 106.574 10.4638 107.237 11.3928 107.808C11.5711 107.918 11.7495 108.023 11.9323 108.126C12.8717 108.655 13.8615 109.09 14.887 109.424C15.0639 109.482 15.2437 109.537 15.4236 109.587C18.6835 110.522 22.153 110.424 25.3552 109.308C25.4176 109.285 25.48 109.263 25.5409 109.241C28.352 108.218 30.8286 106.444 32.7012 104.111C34.5738 101.779 35.7707 98.9771 36.1615 96.0115C36.5523 93.0459 36.1221 90.0299 34.9177 87.2918C33.7133 84.5537 31.7809 82.1985 29.3308 80.4825C26.8807 78.7665 24.0068 77.7554 21.022 77.5595C18.0372 77.3635 15.0557 77.9901 12.4023 79.3711C9.74891 80.752 7.52515 82.8344 5.97312 85.3915C4.4211 87.9486 3.60028 90.8825 3.60002 93.8738Z" fill="white"/>
</mask>
<g mask="url(#mask2_1103_3882)">
<path d="M20.1771 85.9029C23.3583 85.9029 25.9371 88.4817 25.9371 91.6628L25.9372 92.2971C26.5209 92.395 26.9657 92.9027 26.9657 93.5143V94.9543C26.9657 95.5768 26.5048 96.0917 25.9057 96.1764C25.6931 98.2135 24.4187 99.9348 22.6458 100.777L22.6457 102.669H23.0571C27.1472 102.669 30.4628 105.984 30.4628 110.074V111H9.89142V110.074C9.89142 105.984 13.2071 102.669 17.2971 102.669H17.7086L17.7086 100.777C15.9356 99.9349 14.6611 98.2135 14.4485 96.1763C13.8494 96.0917 13.3886 95.5768 13.3886 94.9543V93.5143C13.3886 92.9027 13.8334 92.395 14.4172 92.2971L14.4171 91.6628C14.4171 88.4817 16.996 85.9029 20.1771 85.9029Z" fill="#FDBAB9"/>
<path d="M15.1371 103.424C15.1371 105.099 17.4166 106.457 20.2286 106.457C23.0405 106.457 25.32 105.099 25.32 103.424C25.32 103.284 25.304 103.146 25.2731 103.011C28.2806 103.953 30.4628 106.761 30.4628 110.08V111H9.89142V110.08C9.89142 106.721 12.1274 103.884 15.192 102.977C15.1559 103.123 15.1371 103.272 15.1371 103.424Z" fill="#00A76F"/>
<g opacity="0.16">
<path d="M18.235 97.5389C18.3438 98.5152 19.1718 99.2743 20.1772 99.2743C21.1856 99.2743 22.0156 98.5105 22.1203 97.5298C22.1287 97.4509 22.0406 97.32 21.9301 97.32C20.3982 97.32 19.2245 97.32 18.4375 97.32C18.3264 97.32 18.2241 97.4412 18.235 97.5389Z" fill="black"/>
<path fill-rule="evenodd" clip-rule="evenodd" d="M18.9428 95.5714C18.9428 96.0259 19.4955 96.3943 20.1771 96.3943C20.8588 96.3943 21.4114 96.0259 21.4114 95.5714" fill="black"/>
</g>
<path d="M17.5029 94.3371C17.8437 94.3371 18.12 94.0608 18.12 93.72C18.12 93.3792 17.8437 93.1028 17.5029 93.1028C17.162 93.1028 16.8857 93.3792 16.8857 93.72C16.8857 94.0608 17.162 94.3371 17.5029 94.3371Z" fill="#004B50"/>
<path d="M22.8514 94.3371C23.1923 94.3371 23.4686 94.0608 23.4686 93.72C23.4686 93.3792 23.1923 93.1028 22.8514 93.1028C22.5106 93.1028 22.2343 93.3792 22.2343 93.72C22.2343 94.0608 22.5106 94.3371 22.8514 94.3371Z" fill="#004B50"/>
<path d="M16.0248 92.3991C16.4275 91.8325 17.5315 91.5148 18.4824 91.7483C18.5927 91.7754 18.7041 91.7079 18.7312 91.5976C18.7583 91.4873 18.6908 91.3759 18.5805 91.3488C17.4762 91.0776 16.1978 91.4455 15.6895 92.1608C15.6237 92.2534 15.6454 92.3818 15.738 92.4477C15.8306 92.5135 15.959 92.4918 16.0248 92.3991Z" fill="#004B50"/>
<path d="M24.3295 92.3991C23.9268 91.8325 22.8229 91.5148 21.8719 91.7483C21.7616 91.7754 21.6502 91.7079 21.6231 91.5976C21.596 91.4873 21.6635 91.3759 21.7738 91.3488C22.8782 91.0776 24.1565 91.4455 24.6649 92.1608C24.7307 92.2534 24.709 92.3818 24.6163 92.4477C24.5237 92.5135 24.3953 92.4918 24.3295 92.3991Z" fill="#004B50"/>
<mask id="mask3_1103_3882" style="mask-type:alpha" maskUnits="userSpaceOnUse" x="6" y="82" width="28" height="29">
<path d="M33.7543 82.2V111H30.4629V110.074C30.4629 105.984 27.1472 102.669 23.0571 102.669H22.6457L22.6458 100.777C24.4489 99.9205 25.7364 98.1546 25.9157 96.0721C26.5099 95.9831 26.9657 95.4705 26.9657 94.8514V93.5143C26.9657 92.9027 26.5209 92.395 25.9372 92.2971L25.9371 91.6629C25.9371 90.8456 25.7669 90.0681 25.4601 89.3639C24.439 87.6514 15.7864 87.7341 14.9016 89.3471C14.5901 90.0557 14.4171 90.8391 14.4171 91.6629L14.4172 92.2971C13.8334 92.395 13.3886 92.9027 13.3886 93.5143V94.8514C13.3886 95.4705 13.8443 95.9831 14.4386 96.0721C14.6179 98.1547 15.9054 99.9205 17.7086 100.777L17.7086 102.669H17.2971C13.248 102.669 9.95782 105.918 9.89243 109.952L9.89143 110.074V111H6.60001V82.2H33.7543Z" fill="white"/>
</mask>
<g mask="url(#mask3_1103_3882)">
<path fill-rule="evenodd" clip-rule="evenodd" d="M19.2702 82.4057H21.187C23.1198 82.4057 24.792 83.7511 25.2059 85.6391L26.1429 89.9143H14.3143L15.2513 85.6391C15.6651 83.7511 17.3374 82.4057 19.2702 82.4057Z" fill="#004B50"/>
<path d="M20.1771 97.1143C27.1075 97.1143 32.7257 94.4664 32.7257 91.2C32.7257 87.9336 27.1075 85.2857 20.1771 85.2857C13.2468 85.2857 7.62857 87.9336 7.62857 91.2C7.62857 94.4664 13.2468 97.1143 20.1771 97.1143Z" fill="#004B50"/>
<path d="M20.1772 93.2057C23.6992 93.2057 26.5543 92.0544 26.5543 90.6343C26.5543 89.2141 23.6992 88.0629 20.1772 88.0629C16.6552 88.0629 13.8 89.2141 13.8 90.6343C13.8 92.0544 16.6552 93.2057 20.1772 93.2057Z" fill="#007867"/>
</g>
<g opacity="0.7">
<path d="M19.3248 93.7714C19.3248 94.7694 18.4762 95.5788 17.0622 95.5788H16.7793C15.3653 95.5788 14.7996 94.7691 14.7996 93.7714C14.7996 92.7732 14.9317 91.9641 16.9114 91.9641H17.213C19.1927 91.9641 19.3248 92.7732 19.3248 93.7714Z" fill="#004B50"/>
<path d="M25.6575 93.7714C25.6575 94.7694 24.8092 95.5788 23.3949 95.5788H23.1121C21.6981 95.5788 21.1323 94.7691 21.1323 93.7714C21.1323 92.7732 21.2644 91.9641 23.2441 91.9641H23.5457C25.5251 91.9641 25.6575 92.7732 25.6575 93.7714Z" fill="#004B50"/>
</g>
<path d="M17.213 91.6629C19.44 91.6629 19.6264 92.7045 19.6264 93.7714C19.6264 95.0128 18.5721 95.88 17.0622 95.88H16.7794C15.3509 95.88 14.4981 95.0917 14.4981 93.7714C14.4981 92.7045 14.6844 91.6629 16.9114 91.6629H17.213ZM17.213 92.265H16.9114C15.1374 92.265 15.1019 92.9035 15.1012 93.7211L15.1012 93.7714C15.1012 94.4585 15.3922 95.2775 16.7794 95.2775H17.0622C18.2169 95.2775 19.0233 94.6582 19.0233 93.7714L19.0232 93.6962C19.0232 93.6879 19.0232 93.6796 19.0231 93.6713L19.0229 93.6219C19.0167 92.8524 18.9146 92.265 17.213 92.265Z" fill="#004B50"/>
<path d="M23.5457 91.6629C25.7727 91.6629 25.9591 92.7045 25.9591 93.7714C25.9591 95.0128 24.9049 95.88 23.395 95.88H23.1121C21.6836 95.88 20.8308 95.0917 20.8308 93.7714C20.8308 92.7045 21.0172 91.6629 23.2442 91.6629H23.5457ZM23.5457 92.265H23.2442C21.4701 92.265 21.4346 92.9035 21.4339 93.7211L21.4339 93.7714C21.4339 94.4585 21.7252 95.2775 23.1121 95.2775H23.395C24.5496 95.2775 25.356 94.6582 25.356 93.7714L25.3559 93.6962C25.3559 93.6879 25.3559 93.6796 25.3559 93.6713L25.3556 93.6219C25.3495 92.8524 25.2474 92.265 23.5457 92.265Z" fill="#004B50"/>
<path d="M13.8959 92.2653C13.9664 92.1948 14.7384 91.6629 16.9114 91.6629C18.7335 91.6629 19.1191 91.8562 19.703 92.1484L19.7457 92.17C19.7863 92.1847 19.9939 92.2568 20.2367 92.2647C20.4579 92.255 20.6471 92.1937 20.7023 92.174C21.3687 91.8426 22.021 91.6629 23.5457 91.6629C25.7188 91.6629 26.4907 92.1948 26.5613 92.2653C26.7281 92.2653 26.8629 92.3999 26.8629 92.5665V92.8678C26.8629 93.0343 26.7281 93.169 26.5613 93.169C26.5613 93.169 25.9582 93.169 25.9582 93.4702C25.9582 93.7714 25.6566 93.0343 25.6566 92.8678V92.5744C25.2889 92.4304 24.6305 92.265 23.5457 92.265C22.3371 92.265 21.7352 92.3816 21.2189 92.5993L21.2246 92.6135L20.9679 92.7171L21.2244 92.8208L20.9981 93.3793L20.7185 93.2663C20.6936 93.2562 20.6397 93.238 20.565 93.2192C20.3568 93.1667 20.1427 93.1507 19.9534 93.1904C19.884 93.205 19.8195 93.2269 19.7604 93.2564L19.4907 93.3912L19.2209 92.8524L19.4912 92.7173L19.2328 92.6129L19.2411 92.5926C18.7958 92.3804 18.3852 92.265 16.9114 92.265C15.8267 92.265 15.1684 92.4303 14.8005 92.5743V92.8678C14.8005 93.0343 14.499 93.7714 14.499 93.4702C14.499 93.169 13.8959 93.169 13.8959 93.169C13.7294 93.169 13.5943 93.0343 13.5943 92.8678V92.5665C13.5943 92.3999 13.7294 92.2653 13.8959 92.2653Z" fill="#004B50"/>
</g>
<defs>
<linearGradient id="paint0_linear_1103_3882" x1="34.8205" y1="57.0913" x2="36.6139" y2="69.6398" gradientUnits="userSpaceOnUse">
<stop stop-color="#00A76F"/>
<stop offset="1" stop-color="#007867"/>
</linearGradient>
</defs>
</svg>
