<svg width="120" height="120" viewBox="0 0 120 120" fill="none" xmlns="http://www.w3.org/2000/svg">
<circle cx="60" cy="60" r="60" fill="#F4F6F8"/>
<path d="M51.36 80.82C49.14 77.52 31.56 74.52 30.18 73.62C30.18 73.62 26.94 72.42 25.5 75.66C24.06 78.9 15.54 105.54 15.54 105.54C15.54 105.54 32.22 114.48 37.14 115.44C39.12 115.68 41.28 114.78 42.96 113.7L52.44 85.38C52.38 85.38 53.7 82.26 51.36 80.82Z" fill="url(#paint0_linear_1103_3496)"/>
<path d="M51.3601 80.82C52.9201 83.52 40.9801 112.14 41.0401 114.06C41.0401 114.06 41.0401 114.06 41.0401 114.12C42.5401 116.52 38.2801 118.26 37.6801 115.5C37.5001 115.5 37.3201 115.5 37.1401 115.44C37.2601 115.38 37.4401 115.32 37.6201 115.2C37.5601 114.12 38.3401 113.28 39.3601 113.22C40.3201 110.4 49.5601 82.62 49.7401 82.26C49.7401 82.26 49.4401 80.16 48.6601 78.84C49.7401 79.26 50.7001 79.86 51.3601 80.82ZM52.8001 63.18C52.6201 63.48 42.3601 58.44 44.1001 63.42L39.3001 76.14C39.9001 76.32 40.5001 76.5 41.1001 76.62C42.1201 73.5 45.2401 64.08 45.5401 63.3C45.8401 62.4 49.1401 63.78 50.4001 64.14C51.3601 64.38 51.0601 65.34 51.0601 65.34L46.6201 78.18C47.2201 78.36 47.7001 78.48 48.1201 78.6L52.1401 65.88C54.6601 63.36 52.8001 63.18 52.8001 63.18ZM15.6601 105.48C13.2601 105.48 13.2601 109.2 15.6601 109.2C18.0601 109.2 18.0601 105.48 15.6601 105.48ZM33.7201 113.28C31.3201 113.28 31.3201 117 33.7201 117C36.1201 117 36.1201 113.28 33.7201 113.28Z" fill="#004B50"/>
<path d="M103.5 116.52V116.64H92.0402V112.02C95.7002 112.2 103.68 110.64 103.5 116.52ZM64.5002 109.68L58.6202 105.9L56.1602 109.8L65.8202 115.98C67.2002 113.88 66.6602 111 64.5002 109.68ZM98.2802 108.42L94.0202 56.4001L86.1001 41.7L72.6002 44.0401C73.0802 53.5801 71.6402 74.5201 70.6802 84.1201L61.0202 102.06L65.6402 105.36L78.7802 88.2601L84.0002 71.2801L92.1602 108.78L98.2802 108.42Z" fill="#004B50"/>
<path d="M82.8002 34.5C82.8002 34.5 85.5602 31.2 82.5002 28.14C82.5002 28.14 78.6002 21.84 77.4602 20.7C77.4602 20.7 77.4602 20.82 70.9202 21.06L70.8002 21.18C78.4802 22.56 81.6002 34.92 78.0002 44.4L86.4002 42.3L82.8002 34.5Z" fill="#5BE49B"/>
<path d="M96.8402 56.2801C98.2802 61.2001 99.1802 64.7401 99.1802 64.7401C99.1802 64.7401 97.4402 64.8601 94.7402 65.2801L94.0202 56.4001C91.3802 51.7201 84.5402 39.4201 82.7402 34.5601C82.7402 34.5601 85.5602 31.2601 82.5002 28.2001C82.5002 28.2001 78.6602 21.9001 77.4602 20.7601C78.7202 20.5801 80.1002 21.6601 81.5402 23.2201V23.1001C87.6002 31.3801 95.7602 45.8401 101.52 54.1801L96.8402 56.2801ZM73.6802 22.0801C69.6002 19.3801 63.6602 23.4001 64.6802 28.2001L48.4202 55.7401L53.7002 57.9001L67.9802 39.1201C68.5202 46.3801 62.1602 58.5601 58.2602 61.2601C55.5002 63.9001 59.4602 68.6401 61.5602 69.4801V69.5401C61.5602 69.5401 66.1802 71.7001 71.7602 71.6401C72.0002 68.4601 72.9002 58.9201 72.6602 55.9201C79.7402 44.5801 83.5202 30.4801 73.6802 22.0801Z" fill="#00A76F"/>
<path d="M65.7602 17.8801C67.0202 17.6401 72.4202 18.7201 73.7402 18.9601C74.4002 19.0201 75.0002 18.5401 74.9402 17.8801C82.3802 18.1801 80.1002 17.7601 80.4602 11.4601H82.3202C82.4402 8.7001 80.4602 6.5401 78.1202 5.3401C73.5002 0.300103 64.4402 4.1401 64.6202 10.9201C64.9202 11.8801 63.7202 18.1201 65.7602 17.8801Z" fill="#004B50"/>
<path d="M92.94 108.72L96.66 108.48L96.54 111.96H92.94V108.72ZM59.4 106.38L62.52 108.36L65.28 105.06L61.8 102.6L59.4 106.38ZM48.42 55.7401L48.96 54.7801L45.84 58.6201C39.84 64.3801 52.68 67.7401 50.4 59.8801L52.68 57.4801L48.42 55.7401ZM105.72 58.6801C105.12 57.3001 101.58 54.1801 100.68 52.8601L101.52 54.1801L97.38 56.0401L99.78 58.3801C97.68 64.0201 107.28 64.5001 105.72 58.6801ZM73.98 10.3201L73.56 11.5201H73.14C73.14 13.8601 74.28 16.0201 75 17.7001C78 17.3401 80.22 14.5801 80.04 11.5201H74.04L73.98 10.3201Z" fill="#FDBAB9"/>
<defs>
<linearGradient id="paint0_linear_1103_3496" x1="15.54" y1="73.4027" x2="57.3016" y2="110.342" gradientUnits="userSpaceOnUse">
<stop stop-color="#00A76F"/>
<stop offset="1" stop-color="#007867"/>
</linearGradient>
</defs>
</svg>
