<svg width="120" height="120" viewBox="0 0 120 120" fill="none" xmlns="http://www.w3.org/2000/svg">
<path d="M80.9555 80.1675C80.2355 78.2475 77.4755 77.7075 76.0955 79.2075C75.3155 74.5275 79.0955 59.8275 70.7555 60.0075C27.0755 59.7075 41.8355 55.2075 39.3155 106.627C39.2555 109.507 41.7755 112.027 44.6555 111.967H70.7555C79.1555 112.207 75.3155 97.2675 76.0955 92.5275C77.8355 94.4475 81.3155 93.0075 81.1955 90.4275C81.1355 89.8275 81.4355 80.5275 80.9555 80.1675ZM79.4555 91.1475H76.0955V80.7075H79.4555V91.1475Z" fill="url(#paint0_linear_1103_3956)"/>
<path d="M44.6556 114.127C44.7156 117.667 39.1356 117.667 39.1956 114.127C39.1356 110.587 44.7156 110.587 44.6556 114.127ZM72.4956 111.427C68.9556 111.367 68.9556 116.947 72.4956 116.887C76.0356 116.947 76.0356 111.367 72.4956 111.427Z" fill="url(#paint1_linear_1103_3956)"/>
<path d="M43.8756 59.7075H45.3756V112.207H43.8756V59.7075ZM48.1356 112.147H49.6356V59.7075H48.1356V112.147ZM52.3356 112.147H53.8356V59.7075H52.3356V112.147ZM56.5956 112.147H58.0956V59.7075H56.5956V112.147ZM60.7956 112.147H62.2956V59.7075H60.7956V112.147ZM65.0556 112.147H66.5556V59.7075H65.0556V112.147ZM69.2556 59.7075V112.207H70.7556V59.7075H69.2556Z" fill="#007867"/>
<path d="M84.0155 36.5474L82.9355 40.5674C80.9555 40.0274 78.5555 40.1474 76.5755 40.7474C76.6955 38.8274 76.5755 36.9674 76.2155 35.1074L65.8355 30.6074C64.6355 39.1274 66.6755 43.5674 70.2755 50.2874L64.0955 53.1674C63.0755 55.6274 61.6355 55.5674 59.8355 53.0474C56.0555 58.0874 50.6555 48.9674 45.0155 52.8674L44.1155 48.9074L40.3955 49.0274C37.3955 42.9074 32.5955 27.0674 39.6755 22.6874C39.6755 22.6874 39.6755 22.7474 39.7355 22.7474C41.5355 21.5474 43.6955 20.7074 45.7955 20.1074L50.8955 26.4674C54.2555 19.8074 55.3355 17.5874 63.8555 18.7874L81.0155 28.7474C83.6555 30.1274 85.0355 33.5474 84.0155 36.5474Z" fill="#00A76F"/>
<path fill-rule="evenodd" clip-rule="evenodd" d="M64.5755 31.6275H64.6355V33.0075H64.5755V40.4475C64.5755 41.0475 64.0355 41.5875 63.4355 41.5875C62.4155 41.2875 57.9755 42.4275 58.0955 40.4475V29.5875C58.0955 28.9875 58.6355 28.4475 59.2355 28.4475C59.4155 28.4475 63.8555 28.3875 63.8555 28.5075C64.9955 28.8675 64.5155 30.7875 64.5755 31.6275ZM62.1755 31.6875C62.1755 33.0075 60.1955 33.0075 60.1955 31.6875C60.1955 30.4275 62.1755 30.4275 62.1755 31.6875Z" fill="#C8FAD6"/>
<path d="M78.4956 55.0876L70.7556 88.9876C71.5356 89.7076 74.8956 95.8276 74.8956 96.9076C73.8156 100.388 67.1556 96.9076 65.3556 94.9276C64.3956 90.7876 68.9556 65.6476 68.6556 60.9676C66.3156 60.7876 62.4156 61.2076 60.1956 61.4476C56.2356 61.5676 50.7756 60.6676 46.7556 60.9676L46.6356 61.7476L49.8756 88.8676H49.7556C49.9356 88.9876 50.1756 89.1676 50.4156 89.3476C50.4156 90.4876 51.3156 93.9676 50.5956 94.9876C48.5556 97.2076 45.0756 98.5276 42.4956 98.4076C41.4756 98.3476 40.7556 97.2076 41.1756 96.2476C41.2356 96.1876 44.8356 89.0476 44.9556 89.3476H44.7156L36.9156 55.0876C36.3156 52.5076 37.8156 49.6876 40.3356 48.8476C40.3356 48.9076 40.3956 48.9676 40.3956 49.0276L44.1156 48.9076L45.0156 52.8676C45.2556 52.7476 45.4356 52.6876 45.6756 52.5676C46.2156 52.3876 46.7556 52.2076 47.2956 52.0876C51.7356 50.4076 56.1756 57.7276 59.8356 52.9876C61.6356 55.5076 63.0756 55.5676 64.0956 53.1076L68.6556 51.0076C69.0156 50.4076 69.5556 49.8676 70.0956 49.5076C70.2156 49.8076 70.3956 50.1076 70.5756 50.2876C73.3356 50.1076 75.4956 49.4476 78.0756 51.6676C78.6156 52.6876 78.7356 53.9476 78.4956 55.0876Z" fill="#004B50"/>
<path d="M43.6356 14.1675C43.6356 13.6875 43.6956 13.2675 43.7556 12.8475C43.1556 12.3075 43.6356 9.72751 44.5356 10.8675C44.8356 10.3275 45.1956 9.90751 45.6756 9.48751C47.3556 13.1475 52.7556 11.1675 55.5756 10.7475C56.4756 12.1275 56.7756 13.9875 56.4156 15.6075C62.1756 -1.31249 37.9356 -1.01249 43.7556 15.3675C43.6956 15.0075 43.6356 14.5875 43.6356 14.1675Z" fill="#004B50"/>
<path d="M50.8955 26.3475L45.7955 19.9875C45.7355 19.9875 45.6755 20.0475 45.6155 20.0475L45.4955 18.6675C44.0555 17.2275 43.3355 14.8875 43.8155 12.8475C43.2155 12.3075 43.6955 9.7275 44.5955 10.8675C44.8955 10.3275 45.2555 9.9075 45.7355 9.4875C47.4155 13.1475 52.8155 11.1675 55.6355 10.7475C57.3755 13.3275 56.7155 17.2875 54.3155 19.1475L54.4355 20.1675C54.3155 20.1075 50.8955 26.3475 50.8955 26.3475ZM76.5755 40.6875C76.5755 40.5675 76.5755 40.3875 76.5755 40.2675C76.4555 42.3075 75.9755 44.3475 75.2555 46.3275C74.4155 46.5075 70.7555 46.1475 70.2155 46.9875C69.3155 47.8275 70.0955 50.1675 71.1155 50.5275C73.8155 49.5675 75.7355 49.8075 78.1355 51.6675L82.4555 40.5075C80.5355 40.0275 78.3755 40.1475 76.5755 40.6875ZM64.4555 34.8075C62.1755 33.1275 52.2755 40.5075 49.0355 40.9275C47.4755 43.1475 47.9555 45.3675 49.6355 47.6475C52.8755 46.2675 56.5955 43.7475 60.3155 40.8075L63.7955 39.9075C66.1355 39.3675 66.6155 35.8875 64.4555 34.8075Z" fill="#FDBAB9"/>
<defs>
<linearGradient id="paint0_linear_1103_3956" x1="38.8506" y1="59.7857" x2="89.926" y2="101.268" gradientUnits="userSpaceOnUse">
<stop stop-color="#00A76F"/>
<stop offset="1" stop-color="#007867"/>
</linearGradient>
<linearGradient id="paint1_linear_1103_3956" x1="39.1951" y1="111.427" x2="40.8166" y2="122.103" gradientUnits="userSpaceOnUse">
<stop stop-color="#00A76F"/>
<stop offset="1" stop-color="#007867"/>
</linearGradient>
</defs>
</svg>
