<svg width="14" height="14" viewBox="0 0 14 14" fill="none" xmlns="http://www.w3.org/2000/svg">
<path d="M4.16671 0.666748C4.16671 0.53414 4.11403 0.406963 4.02026 0.313195C3.92649 0.219426 3.79932 0.166748 3.66671 0.166748C3.5341 0.166748 3.40692 0.219426 3.31315 0.313195C3.21939 0.406963 3.16671 0.53414 3.16671 0.666748V1.72008C2.20671 1.79675 1.57737 1.98475 1.11471 2.44808C0.651374 2.91075 0.463374 3.54075 0.386041 4.50008H13.614C13.5367 3.54008 13.3487 2.91075 12.8854 2.44808C12.4227 1.98475 11.7927 1.79675 10.8334 1.71941V0.666748C10.8334 0.53414 10.7807 0.406963 10.6869 0.313195C10.5932 0.219426 10.466 0.166748 10.3334 0.166748C10.2008 0.166748 10.0736 0.219426 9.97982 0.313195C9.88605 0.406963 9.83337 0.53414 9.83337 0.666748V1.67541C9.39004 1.66675 8.89271 1.66675 8.33337 1.66675H5.66671C5.10737 1.66675 4.61004 1.66675 4.16671 1.67541V0.666748Z" fill="#637381"/>
<path fill-rule="evenodd" clip-rule="evenodd" d="M13.6667 7.00008C13.6667 6.44075 13.6667 5.94341 13.658 5.50008H0.342041C0.333374 5.94341 0.333374 6.44075 0.333374 7.00008V8.33342C0.333374 10.8474 0.333374 12.1047 1.11471 12.8854C1.89537 13.6667 3.15271 13.6667 5.66671 13.6667H8.33337C10.8474 13.6667 12.1047 13.6667 12.8854 12.8854C13.6667 12.1047 13.6667 10.8474 13.6667 8.33342V7.00008ZM8.33337 7.16675C8.02395 7.16675 7.72721 7.28966 7.50842 7.50846C7.28962 7.72725 7.16671 8.024 7.16671 8.33342V9.66675C7.16671 9.97617 7.28962 10.2729 7.50842 10.4917C7.72721 10.7105 8.02395 10.8334 8.33337 10.8334C8.64279 10.8334 8.93954 10.7105 9.15833 10.4917C9.37712 10.2729 9.50004 9.97617 9.50004 9.66675V8.33342C9.50004 8.024 9.37712 7.72725 9.15833 7.50846C8.93954 7.28966 8.64279 7.16675 8.33337 7.16675ZM8.33337 8.16675C8.28917 8.16675 8.24678 8.18431 8.21552 8.21556C8.18427 8.24682 8.16671 8.28921 8.16671 8.33342V9.66675C8.16671 9.71095 8.18427 9.75334 8.21552 9.7846C8.24678 9.81586 8.28917 9.83342 8.33337 9.83342C8.37758 9.83342 8.41997 9.81586 8.45123 9.7846C8.48248 9.75334 8.50004 9.71095 8.50004 9.66675V8.33342C8.50004 8.28921 8.48248 8.24682 8.45123 8.21556C8.41997 8.18431 8.37758 8.16675 8.33337 8.16675ZM6.19137 7.20475C6.28275 7.24259 6.36085 7.30669 6.41579 7.38893C6.47073 7.47116 6.50005 7.56785 6.50004 7.66675V10.3334C6.50004 10.466 6.44736 10.5932 6.35359 10.687C6.25983 10.7807 6.13265 10.8334 6.00004 10.8334C5.86743 10.8334 5.74026 10.7807 5.64649 10.687C5.55272 10.5932 5.50004 10.466 5.50004 10.3334V8.87341L5.35337 9.02008C5.25859 9.1084 5.13323 9.15648 5.00369 9.1542C4.87416 9.15191 4.75057 9.09944 4.65896 9.00783C4.56735 8.91622 4.51488 8.79263 4.51259 8.6631C4.5103 8.53356 4.55839 8.4082 4.64671 8.31342L5.64671 7.31342C5.71658 7.24349 5.80562 7.19584 5.90257 7.1765C5.99951 7.15716 6.10001 7.16699 6.19137 7.20475Z" fill="#637381"/>
</svg>
