<svg width="50" height="24" viewBox="0 0 50 24" fill="none" xmlns="http://www.w3.org/2000/svg">
<rect width="50" height="24" rx="6" fill="#212B36"/>
<path d="M6.0625 16.84H18.0625V4.84H6.0625V16.84ZM24.8475 16.12C23.8075 16.12 22.9635 15.912 22.3155 15.496C21.6675 15.076 21.2955 14.43 21.1995 13.558L23.0235 13.522C23.1195 13.918 23.3255 14.22 23.6415 14.428C23.9615 14.632 24.3615 14.734 24.8415 14.734C25.1295 14.734 25.3835 14.688 25.6035 14.596C25.8275 14.5 26.0035 14.372 26.1315 14.212C26.2595 14.048 26.3235 13.862 26.3235 13.654C26.3235 13.334 26.2215 13.096 26.0175 12.94C25.8135 12.78 25.4995 12.652 25.0755 12.556L23.6535 12.25C22.9935 12.118 22.4635 11.856 22.0635 11.464C21.6675 11.068 21.4655 10.538 21.4575 9.874C21.4535 9.33 21.5995 8.86 21.8955 8.464C22.1955 8.064 22.6015 7.756 23.1135 7.54C23.6295 7.324 24.2075 7.216 24.8475 7.216C25.5035 7.216 26.0695 7.334 26.5455 7.57C27.0255 7.802 27.3935 8.116 27.6495 8.512C27.9095 8.904 28.0355 9.338 28.0275 9.814L26.2575 9.844C26.2015 9.46 26.0735 9.158 25.8735 8.938C25.6735 8.718 25.3415 8.608 24.8775 8.608C24.6375 8.608 24.4235 8.634 24.2355 8.686C24.0475 8.738 23.8855 8.812 23.7495 8.908C23.6135 9 23.5095 9.11 23.4375 9.238C23.3695 9.366 23.3355 9.51 23.3355 9.67C23.3355 9.922 23.4195 10.122 23.5875 10.27C23.7595 10.414 24.0815 10.548 24.5535 10.672L25.9515 11.014C26.7395 11.202 27.3075 11.524 27.6555 11.98C28.0075 12.436 28.1835 12.99 28.1835 13.642C28.1835 14.142 28.0455 14.578 27.7695 14.95C27.4975 15.322 27.1115 15.61 26.6115 15.814C26.1115 16.018 25.5235 16.12 24.8475 16.12ZM24.0975 6.082H25.6155V7.642H24.0975V6.082ZM24.0675 15.586H25.5795V17.146H24.0675V15.586ZM29.2894 7.324H35.7694V8.758C35.4934 9.102 35.2154 9.508 34.9354 9.976C34.6594 10.444 34.3934 10.944 34.1374 11.476C33.8854 12.008 33.6574 12.546 33.4534 13.09C33.2494 13.634 33.0854 14.156 32.9614 14.656C32.8374 15.156 32.7694 15.604 32.7574 16H30.8674C30.8994 15.648 30.9794 15.204 31.1074 14.668C31.2354 14.128 31.4214 13.532 31.6654 12.88C31.9134 12.224 32.2234 11.544 32.5954 10.84C32.9714 10.136 33.4194 9.442 33.9394 8.758H29.2894V7.324ZM36.9983 16V15.136V14.692C36.9983 14.252 37.0803 13.872 37.2443 13.552C37.4083 13.228 37.6243 12.948 37.8923 12.712C38.1643 12.472 38.4603 12.262 38.7803 12.082C39.1043 11.902 39.4283 11.732 39.7523 11.572C40.0763 11.412 40.3723 11.252 40.6403 11.092C40.9123 10.928 41.1303 10.746 41.2943 10.546C41.4583 10.346 41.5403 10.11 41.5403 9.838C41.5403 9.49 41.4183 9.206 41.1743 8.986C40.9343 8.766 40.6043 8.656 40.1843 8.656C39.7483 8.656 39.3783 8.782 39.0743 9.034C38.7703 9.286 38.5823 9.666 38.5103 10.174H36.8363C36.8443 9.622 36.9723 9.122 37.2203 8.674C37.4723 8.222 37.8483 7.864 38.3483 7.6C38.8483 7.336 39.4763 7.204 40.2323 7.204C40.8803 7.204 41.4383 7.314 41.9063 7.534C42.3783 7.754 42.7423 8.06 42.9983 8.452C43.2543 8.844 43.3823 9.302 43.3823 9.826C43.3823 10.262 43.3023 10.638 43.1423 10.954C42.9823 11.27 42.7703 11.54 42.5063 11.764C42.2423 11.988 41.9523 12.184 41.6363 12.352C41.3203 12.52 41.0043 12.676 40.6883 12.82C40.3763 12.964 40.0883 13.112 39.8243 13.264C39.5603 13.412 39.3483 13.58 39.1883 13.768C39.0283 13.956 38.9483 14.182 38.9483 14.446V14.524H43.3703V16H36.9983Z" fill="white"/>
</svg>
