<svg width="36" height="24" viewBox="0 0 36 24" fill="none" xmlns="http://www.w3.org/2000/svg">
<rect width="36" height="24" rx="6" fill="#212B36"/>
<path d="M10.576 16.12C9.53598 16.12 8.69198 15.912 8.04398 15.496C7.39598 15.076 7.02398 14.43 6.92798 13.558L8.75198 13.522C8.84798 13.918 9.05398 14.22 9.36998 14.428C9.68998 14.632 10.09 14.734 10.57 14.734C10.858 14.734 11.112 14.688 11.332 14.596C11.556 14.5 11.732 14.372 11.86 14.212C11.988 14.048 12.052 13.862 12.052 13.654C12.052 13.334 11.95 13.096 11.746 12.94C11.542 12.78 11.228 12.652 10.804 12.556L9.38198 12.25C8.72198 12.118 8.19198 11.856 7.79198 11.464C7.39598 11.068 7.19398 10.538 7.18598 9.874C7.18198 9.33 7.32798 8.86 7.62398 8.464C7.92398 8.064 8.32998 7.756 8.84198 7.54C9.35798 7.324 9.93598 7.216 10.576 7.216C11.232 7.216 11.798 7.334 12.274 7.57C12.754 7.802 13.122 8.116 13.378 8.512C13.638 8.904 13.764 9.338 13.756 9.814L11.986 9.844C11.93 9.46 11.802 9.158 11.602 8.938C11.402 8.718 11.07 8.608 10.606 8.608C10.366 8.608 10.152 8.634 9.96398 8.686C9.77598 8.738 9.61398 8.812 9.47798 8.908C9.34198 9 9.23798 9.11 9.16598 9.238C9.09798 9.366 9.06398 9.51 9.06398 9.67C9.06398 9.922 9.14798 10.122 9.31598 10.27C9.48798 10.414 9.80998 10.548 10.282 10.672L11.68 11.014C12.468 11.202 13.036 11.524 13.384 11.98C13.736 12.436 13.912 12.99 13.912 13.642C13.912 14.142 13.774 14.578 13.498 14.95C13.226 15.322 12.84 15.61 12.34 15.814C11.84 16.018 11.252 16.12 10.576 16.12ZM9.82598 6.082H11.344V7.642H9.82598V6.082ZM9.79598 15.586H11.308V17.146H9.79598V15.586ZM15.018 7.324H21.498V8.758C21.222 9.102 20.944 9.508 20.664 9.976C20.388 10.444 20.122 10.944 19.866 11.476C19.614 12.008 19.386 12.546 19.182 13.09C18.978 13.634 18.814 14.156 18.69 14.656C18.566 15.156 18.498 15.604 18.486 16H16.596C16.628 15.648 16.708 15.204 16.836 14.668C16.964 14.128 17.15 13.532 17.394 12.88C17.642 12.224 17.952 11.544 18.324 10.84C18.7 10.136 19.148 9.442 19.668 8.758H15.018V7.324ZM22.7268 16V15.136V14.692C22.7268 14.252 22.8088 13.872 22.9728 13.552C23.1368 13.228 23.3528 12.948 23.6208 12.712C23.8928 12.472 24.1888 12.262 24.5088 12.082C24.8328 11.902 25.1568 11.732 25.4808 11.572C25.8048 11.412 26.1008 11.252 26.3688 11.092C26.6408 10.928 26.8588 10.746 27.0228 10.546C27.1868 10.346 27.2688 10.11 27.2688 9.838C27.2688 9.49 27.1468 9.206 26.9028 8.986C26.6628 8.766 26.3328 8.656 25.9128 8.656C25.4768 8.656 25.1068 8.782 24.8028 9.034C24.4988 9.286 24.3108 9.666 24.2388 10.174H22.5648C22.5728 9.622 22.7008 9.122 22.9488 8.674C23.2008 8.222 23.5768 7.864 24.0768 7.6C24.5768 7.336 25.2048 7.204 25.9608 7.204C26.6088 7.204 27.1668 7.314 27.6348 7.534C28.1068 7.754 28.4708 8.06 28.7268 8.452C28.9828 8.844 29.1108 9.302 29.1108 9.826C29.1108 10.262 29.0308 10.638 28.8708 10.954C28.7108 11.27 28.4988 11.54 28.2348 11.764C27.9708 11.988 27.6808 12.184 27.3648 12.352C27.0488 12.52 26.7328 12.676 26.4168 12.82C26.1048 12.964 25.8168 13.112 25.5528 13.264C25.2888 13.412 25.0768 13.58 24.9168 13.768C24.7568 13.956 24.6768 14.182 24.6768 14.446V14.524H29.0988V16H22.7268Z" fill="white"/>
</svg>
