<svg width="20" height="20" viewBox="0 0 20 20" fill="none" xmlns="http://www.w3.org/2000/svg">
<g opacity="0.48">
<path d="M14.6331 17.5C14.4999 17.5005 14.3684 17.4691 14.2498 17.4083L9.9998 15.1833L5.7498 17.4083C5.6118 17.4809 5.4562 17.5133 5.3007 17.5018C5.1452 17.4904 4.99603 17.4355 4.87016 17.3435C4.74429 17.2515 4.64675 17.126 4.58865 16.9813C4.53054 16.8366 4.5142 16.6785 4.54147 16.525L5.3748 11.8333L1.94147 8.5C1.83435 8.39311 1.75836 8.25906 1.72166 8.11225C1.68496 7.96543 1.68892 7.8114 1.73314 7.66667C1.78144 7.51856 1.87028 7.38696 1.98959 7.2868C2.10891 7.18664 2.2539 7.12192 2.40814 7.1L7.15814 6.40833L9.2498 2.13333C9.31804 1.99244 9.42458 1.87362 9.55723 1.79048C9.68987 1.70734 9.84326 1.66324 9.9998 1.66324C10.1563 1.66324 10.3097 1.70734 10.4424 1.79048C10.575 1.87362 10.6816 1.99244 10.7498 2.13333L12.8665 6.4L17.6165 7.09167C17.7707 7.11359 17.9157 7.1783 18.035 7.27847C18.1543 7.37863 18.2432 7.51023 18.2915 7.65833C18.3357 7.80306 18.3396 7.9571 18.3029 8.10391C18.2662 8.25072 18.1903 8.38477 18.0831 8.49167L14.6498 11.825L15.4831 16.5167C15.5129 16.6729 15.4973 16.8344 15.4382 16.982C15.3792 17.1297 15.2791 17.2574 15.1498 17.35C14.9989 17.4557 14.8172 17.5085 14.6331 17.5Z" fill="#919EAB"/>
</g>
</svg>
