<svg width="49" height="48" viewBox="0 0 49 48" fill="none" xmlns="http://www.w3.org/2000/svg">
<path opacity="0.48" d="M17.631 43.8278L17.3683 44.2607C17.3683 44.2607 5.68384 44.8621 5.68384 37.1297C5.68384 29.2255 15.9178 25.7636 19.0866 24.672C19.7787 24.4336 21.0129 24.0861 22.5191 23.606C22.7439 24.0828 22.9628 24.5622 23.1768 25.0437C19.2417 26.4527 10.8387 29.9674 10.8387 37.1297C10.8387 41.4168 14.4303 43.1414 17.631 43.8278ZM29.4351 43.2164L31.0568 35.8699C31.4713 33.7964 32.4903 31.892 33.9855 30.3968L37.0276 27.3547C35.7283 27.2366 34.3881 27.6745 33.3935 28.6691L28.1433 33.9193C26.6481 35.4145 25.629 37.3189 25.2146 39.3924L24.2415 44.2607C24.2415 44.2607 29.3271 43.2414 29.4351 43.2164Z" fill="#FFAB00"/>
<path d="M44.4843 24.0171C43.2996 22.8325 41.7246 22.1802 40.0494 22.1802C38.3742 22.1802 36.7992 22.8325 35.6146 24.0171L26.9278 32.7039C25.1869 34.4449 24.0117 36.6412 23.5292 39.0553L22.5561 43.9236C22.4434 44.4869 22.6198 45.0692 23.026 45.4755C23.3515 45.8008 23.7899 45.9787 24.2411 45.9787C24.3532 45.9787 24.4659 45.9678 24.5779 45.9453L29.4462 44.9723C31.8603 44.4898 34.0566 43.3145 35.7976 41.5736L44.4843 32.8868C45.6689 31.7022 46.3213 30.1272 46.3213 28.452C46.3213 26.7767 45.6689 25.2017 44.4843 24.0171ZM42.0542 30.4567L33.3674 39.1435C32.108 40.403 30.5191 41.2533 28.7726 41.6022L26.4312 42.0702L26.8992 39.7288C27.2482 37.9823 28.0984 36.3935 29.3579 35.134L38.0447 26.4472C38.5801 25.9117 39.2922 25.6168 40.0494 25.6168C40.8067 25.6168 41.5188 25.9117 42.0543 26.4472C42.5897 26.9827 42.8846 27.6947 42.8846 28.452C42.8846 29.2092 42.5898 29.9213 42.0542 30.4567Z" fill="#FFAB00"/>
<path d="M20.8783 25.9003C20.3768 26.058 19.8683 26.2202 19.5713 26.3224C16.5616 27.3588 7.40267 30.5125 7.40267 37.1295C7.40267 38.4088 7.81635 39.4248 8.66743 40.2353C10.9032 42.3648 15.6457 42.6242 17.2828 42.5443C18.2315 42.4971 19.0364 43.2278 19.0838 44.1746C19.1312 45.1215 18.404 45.9278 17.4572 45.9766C17.4071 45.9792 17.1674 45.9902 16.7853 45.9902C14.8823 45.9902 9.44556 45.7143 6.30536 42.7315C4.75322 41.2572 3.96606 39.3724 3.96606 37.1295C3.96606 34.9612 4.61481 32.9196 5.89409 31.0614C6.91562 29.5779 8.35169 28.2018 10.1628 26.9714C13.2777 24.8549 16.8478 23.6256 18.5275 23.0473C18.8684 22.9298 19.322 22.7872 19.8473 22.622C22.1938 21.8841 26.1211 20.649 29.4897 18.7732C33.1907 16.7124 35.0673 14.5238 35.0673 12.2682C35.0673 9.69399 33.8476 8.06822 32.8244 7.15769C31.643 6.10617 30.0278 5.42684 28.7096 5.42684C27.7606 5.42684 26.9913 4.65756 26.9913 3.70854C26.9913 2.75952 27.7606 1.99023 28.7096 1.99023C30.8872 1.99023 33.2796 2.96219 35.109 4.59029C37.2982 6.5385 38.504 9.26519 38.504 12.2681C38.504 20.3574 26.1526 24.2416 20.8783 25.9003Z" fill="#7A4100"/>
<path d="M11.7839 12.6437C8.16526 12.6437 5.95372 11.1071 4.7357 9.81805C3.20899 8.20216 2.33325 5.97532 2.33325 3.70854C2.33325 2.75952 3.10254 1.99023 4.05156 1.99023C5.00057 1.99023 5.76986 2.75952 5.76986 3.70854C5.76986 6.35679 7.65183 9.20711 11.7839 9.20711C14.7527 9.20711 16.627 7.73315 18.7972 6.02644C19.4698 5.49746 20.1653 4.95053 20.9116 4.43658C21.6931 3.89841 22.763 4.0955 23.3014 4.87707C23.8396 5.65864 23.6425 6.72854 22.8609 7.2668C22.2041 7.71914 21.5811 8.20903 20.9215 8.72779C18.5876 10.5633 15.9422 12.6437 11.7839 12.6437Z" fill="#7A4100"/>
</svg>
