<svg width="49" height="48" viewBox="0 0 49 48" fill="none" xmlns="http://www.w3.org/2000/svg">
<path opacity="0.48" d="M9.71338 27.4V13.2992C9.71338 8.55495 13.55 4.70898 18.2827 4.70898H13.0649C8.3187 4.70898 4.47119 8.55649 4.47119 13.3027V27.3965C4.47119 32.1426 8.3187 35.9902 13.0649 35.9902H18.2827C13.55 35.9902 9.71338 32.1443 9.71338 27.4Z" fill="#00B8D9"/>
<path d="M32.9165 44.584H16.4165C14.1385 44.4995 14.1402 41.2302 16.4165 41.1465H32.9165C35.1945 41.231 35.1928 44.5003 32.9165 44.584ZM36.354 37.709H12.9772C7.29192 37.709 2.6665 33.0837 2.6665 27.3983V13.3027C2.6665 7.61642 7.29269 2.99023 12.979 2.99023H36.354C42.0403 2.99023 46.6665 7.61642 46.6665 13.3027V27.3965C46.6665 33.0828 42.0403 37.709 36.354 37.709ZM12.979 6.42773C9.18813 6.42773 6.104 9.51186 6.104 13.3027V27.3983C6.104 31.1881 9.18736 34.2715 12.9772 34.2715H36.354C40.1449 34.2715 43.229 31.1874 43.229 27.3965V13.3027C43.229 9.51186 40.1449 6.42773 36.354 6.42773H12.979Z" fill="#003768"/>
<path d="M22.777 29.0295C22.6197 29.0295 22.46 29.0077 22.3012 28.9622C21.389 28.6998 20.862 27.7477 21.1243 26.8354L25.0774 13.0854C25.3398 12.1732 26.2921 11.6467 27.2042 11.9085C28.1164 12.1709 28.6434 13.123 28.3811 14.0353L24.428 27.7853C24.2113 28.5388 23.5238 29.0295 22.777 29.0295ZM33.0887 27.3103C32.6442 27.3103 32.2 27.139 31.8637 26.7972C31.1978 26.1206 31.2065 25.0324 31.8831 24.3665L35.2481 21.0548C35.5824 20.6938 35.5825 20.2195 35.2454 19.8584L31.8748 16.4959C31.2028 15.8254 31.2016 14.7371 31.872 14.0652C32.5425 13.3931 33.6307 13.392 34.3027 14.0623L37.6729 17.4245C39.3413 19.0205 39.3413 21.8958 37.6724 23.4919C37.6699 23.4946 37.6672 23.4973 37.6645 23.4998L34.2943 26.8167C33.9595 27.146 33.524 27.3103 33.0887 27.3103ZM16.4167 27.3103C15.9814 27.3103 15.5459 27.146 15.2111 26.8166L11.8409 23.4998C11.8383 23.4972 11.8356 23.4945 11.833 23.4919C10.164 21.8954 10.1641 19.0204 11.833 17.4241L15.2028 14.0623C15.8748 13.3919 16.963 13.3933 17.6334 14.0652C18.3038 14.7371 18.3026 15.8254 17.6306 16.4959L14.2604 19.8581C13.9232 20.219 13.9225 20.6931 14.2572 21.0548L17.6223 24.3665C18.2989 25.0324 18.3075 26.1206 17.6417 26.7972C17.3053 27.139 16.861 27.3103 16.4167 27.3103Z" fill="#00B8D9"/>
</svg>
