<svg width="24" height="24" viewBox="0 0 24 24" fill="none" xmlns="http://www.w3.org/2000/svg">
<path fill-rule="evenodd" clip-rule="evenodd" d="M13.2321 1.36006C13.8641 0.60206 15.0951 1.12006 14.9951 2.10206L14.2891 9.00006H20.0001C20.1901 9.00013 20.3762 9.05434 20.5365 9.15633C20.6968 9.25833 20.8248 9.40389 20.9054 9.57597C20.9859 9.74805 21.0158 9.93952 20.9915 10.128C20.9672 10.3164 20.8897 10.4941 20.7681 10.6401L10.7681 22.6401C10.1361 23.3981 8.90511 22.8801 9.00511 21.8981L9.71111 15.0001H4.00011C3.8101 15 3.62404 14.9458 3.46372 14.8438C3.3034 14.7418 3.17545 14.5962 3.09487 14.4242C3.01429 14.2521 2.9844 14.0606 3.0087 13.8721C3.03301 13.6837 3.11051 13.5061 3.23211 13.3601L13.2321 1.36006Z" fill="white"/>
</svg>
