<svg width="24" height="25" viewBox="0 0 24 25" fill="none" xmlns="http://www.w3.org/2000/svg">
<path d="M20 11.1372C19.7348 11.1372 19.4804 11.2426 19.2929 11.4301C19.1054 11.6176 19 11.872 19 12.1372V18.1372C19 18.4024 18.8946 18.6568 18.7071 18.8443C18.5196 19.0319 18.2652 19.1372 18 19.1372H6C5.73478 19.1372 5.48043 19.0319 5.29289 18.8443C5.10536 18.6568 5 18.4024 5 18.1372V6.13721C5 5.87199 5.10536 5.61764 5.29289 5.4301C5.48043 5.24256 5.73478 5.13721 6 5.13721H12C12.2652 5.13721 12.5196 5.03185 12.7071 4.84431C12.8946 4.65678 13 4.40242 13 4.13721C13 3.87199 12.8946 3.61764 12.7071 3.4301C12.5196 3.24256 12.2652 3.13721 12 3.13721H6C5.20435 3.13721 4.44129 3.45328 3.87868 4.01589C3.31607 4.5785 3 5.34156 3 6.13721V18.1372C3 18.9329 3.31607 19.6959 3.87868 20.2585C4.44129 20.8211 5.20435 21.1372 6 21.1372H18C18.7956 21.1372 19.5587 20.8211 20.1213 20.2585C20.6839 19.6959 21 18.9329 21 18.1372V12.1372C21 11.872 20.8946 11.6176 20.7071 11.4301C20.5196 11.2426 20.2652 11.1372 20 11.1372Z" fill="white"/>
<path d="M16 5.13721H17.58L11.29 11.4172C11.1963 11.5102 11.1219 11.6208 11.0711 11.7426C11.0203 11.8645 10.9942 11.9952 10.9942 12.1272C10.9942 12.2592 11.0203 12.3899 11.0711 12.5118C11.1219 12.6336 11.1963 12.7442 11.29 12.8372C11.383 12.9309 11.4936 13.0053 11.6154 13.0561C11.7373 13.1069 11.868 13.133 12 13.133C12.132 13.133 12.2627 13.1069 12.3846 13.0561C12.5064 13.0053 12.617 12.9309 12.71 12.8372L19 6.55721V8.13721C19 8.40242 19.1054 8.65678 19.2929 8.84431C19.4804 9.03185 19.7348 9.13721 20 9.13721C20.2652 9.13721 20.5196 9.03185 20.7071 8.84431C20.8946 8.65678 21 8.40242 21 8.13721V4.13721C21 3.87199 20.8946 3.61764 20.7071 3.4301C20.5196 3.24256 20.2652 3.13721 20 3.13721H16C15.7348 3.13721 15.4804 3.24256 15.2929 3.4301C15.1054 3.61764 15 3.87199 15 4.13721C15 4.40242 15.1054 4.65678 15.2929 4.84431C15.4804 5.03185 15.7348 5.13721 16 5.13721Z" fill="white"/>
</svg>
